<svg width="146" height="146" fill="none" xmlns="http://www.w3.org/2000/svg"><path d="M140.786 33.955c.405.7.798 1.407 1.181 2.121a2.607 2.607 0 01-1.181-2.121zm-14.275-17.999a79.139 79.139 0 013.534 3.533 2.608 2.608 0 11-3.534-3.534zM109.924 4.033a78.06 78.06 0 012.121 1.18 2.605 2.605 0 01-2.121-1.18zM33.955 5.214c.7-.405 1.407-.798 2.121-1.181a2.605 2.605 0 01-2.121 1.18zM15.956 19.489a78.702 78.702 0 013.533-3.534 2.606 2.606 0 11-3.534 3.534zM4.033 36.076c.383-.714.776-1.42 1.18-2.121a2.605 2.605 0 01-1.18 2.121zm137.934 73.848a75.469 75.469 0 01-1.181 2.121 2.606 2.606 0 011.181-2.121zm-11.922 16.587a2.607 2.607 0 10-3.534 3.534 79.58 79.58 0 003.534-3.534zm-18 14.275a2.606 2.606 0 00-2.121 1.181 75.469 75.469 0 002.121-1.181zm-75.969 1.181a2.607 2.607 0 00-2.121-1.181c.7.405 1.407.798 2.121 1.181zm-16.587-11.922a2.608 2.608 0 10-3.534-3.534 79.139 79.139 0 003.534 3.534zm-14.275-18a2.605 2.605 0 00-1.181-2.121 78.06 78.06 0 001.18 2.121zM52.143 2.607a2.607 2.607 0 11-5.214 0 2.607 2.607 0 015.214 0zm15.643 0a2.607 2.607 0 11-5.214 0 2.607 2.607 0 015.214 0zm15.643 0a2.607 2.607 0 11-5.215 0 2.607 2.607 0 015.215 0zm15.642 0a2.607 2.607 0 11-5.214 0 2.607 2.607 0 015.214 0zM36.5 18.25a2.607 2.607 0 11-5.214 0 2.607 2.607 0 015.214 0zm15.643 0a2.607 2.607 0 11-5.214 0 2.607 2.607 0 015.214 0zm15.643 0a2.607 2.607 0 11-5.214 0 2.607 2.607 0 015.214 0zm15.643 0a2.607 2.607 0 11-5.215 0 2.607 2.607 0 015.215 0zm15.642 0a2.607 2.607 0 11-5.214 0 2.607 2.607 0 015.214 0zm15.643 0a2.607 2.607 0 11-5.214 0 2.607 2.607 0 015.214 0zM20.857 33.893a2.607 2.607 0 11-5.214 0 2.607 2.607 0 015.214 0zm15.643 0a2.607 2.607 0 11-5.214 0 2.607 2.607 0 015.214 0zm15.643 0a2.607 2.607 0 11-5.215 0 2.607 2.607 0 015.215 0zm15.643 0a2.607 2.607 0 11-5.215 0 2.607 2.607 0 015.215 0zm15.643 0a2.607 2.607 0 11-5.215 0 2.607 2.607 0 015.215 0zm15.642 0a2.607 2.607 0 11-5.214 0 2.607 2.607 0 015.214 0zm15.643 0a2.607 2.607 0 11-5.214 0 2.607 2.607 0 015.214 0zm15.643 0a2.607 2.607 0 11-5.214 0 2.607 2.607 0 015.214 0zM5.214 49.536a2.607 2.607 0 11-5.214 0 2.607 2.607 0 015.214 0zm15.643 0a2.607 2.607 0 11-5.214 0 2.607 2.607 0 015.214 0zm15.643 0a2.607 2.607 0 11-5.214 0 2.607 2.607 0 015.214 0zm15.643 0a2.607 2.607 0 11-5.215 0 2.607 2.607 0 015.215 0zm15.643 0a2.607 2.607 0 11-5.215 0 2.607 2.607 0 015.215 0zm15.643 0a2.607 2.607 0 11-5.215 0 2.607 2.607 0 015.215 0zm15.642 0a2.607 2.607 0 11-5.214 0 2.607 2.607 0 015.214 0zm15.643 0a2.607 2.607 0 11-5.214 0 2.607 2.607 0 015.214 0zm15.643 0a2.607 2.607 0 11-5.214 0 2.607 2.607 0 015.214 0zm15.643 0a2.607 2.607 0 11-5.214 0 2.607 2.607 0 015.214 0zM5.214 65.179a2.607 2.607 0 11-5.214 0 2.607 2.607 0 015.214 0zm15.643 0a2.607 2.607 0 11-5.214 0 2.607 2.607 0 015.214 0zm15.643 0a2.607 2.607 0 11-5.214 0 2.607 2.607 0 015.214 0zm15.643 0a2.607 2.607 0 11-5.214 0 2.607 2.607 0 015.214 0zm15.643 0a2.607 2.607 0 11-5.214 0 2.607 2.607 0 015.214 0zm15.643 0a2.607 2.607 0 11-5.215 0 2.607 2.607 0 015.215 0zm15.642 0a2.607 2.607 0 11-5.214 0 2.607 2.607 0 015.214 0zm15.643 0a2.607 2.607 0 11-5.214 0 2.607 2.607 0 015.214 0zm15.643 0a2.607 2.607 0 11-5.214 0 2.607 2.607 0 015.214 0zm15.643 0a2.607 2.607 0 11-5.214 0 2.607 2.607 0 015.214 0zM5.214 80.821a2.607 2.607 0 11-5.214 0 2.607 2.607 0 015.214 0zm15.643 0a2.607 2.607 0 11-5.214 0 2.607 2.607 0 015.214 0zm15.643 0a2.607 2.607 0 11-5.214 0 2.607 2.607 0 015.214 0zm15.643 0a2.607 2.607 0 11-5.215 0 2.607 2.607 0 015.215 0zm15.643 0a2.607 2.607 0 11-5.215 0 2.607 2.607 0 015.215 0zm15.643 0a2.607 2.607 0 11-5.215 0 2.607 2.607 0 015.215 0zm15.642 0a2.607 2.607 0 11-5.214 0 2.607 2.607 0 015.214 0zm15.643 0a2.607 2.607 0 11-5.214 0 2.607 2.607 0 015.214 0zm15.643 0a2.607 2.607 0 11-5.214 0 2.607 2.607 0 015.214 0zm15.643 0a2.607 2.607 0 11-5.214 0 2.607 2.607 0 015.214 0zM5.214 96.464a2.607 2.607 0 11-5.214 0 2.607 2.607 0 015.214 0zm15.643 0a2.607 2.607 0 11-5.214 0 2.607 2.607 0 015.214 0zm15.643 0a2.607 2.607 0 11-5.214 0 2.607 2.607 0 015.214 0zm15.643 0a2.607 2.607 0 11-5.214 0 2.607 2.607 0 015.214 0zm15.643 0a2.607 2.607 0 11-5.214 0 2.607 2.607 0 015.214 0zm15.643 0a2.607 2.607 0 11-5.215 0 2.607 2.607 0 015.215 0zm15.642 0a2.607 2.607 0 11-5.214 0 2.607 2.607 0 015.214 0zm15.643 0a2.607 2.607 0 11-5.214 0 2.607 2.607 0 015.214 0zm15.643 0a2.607 2.607 0 11-5.214 0 2.607 2.607 0 015.214 0zm15.643 0a2.607 2.607 0 11-5.214 0 2.607 2.607 0 015.214 0zM20.857 112.107a2.607 2.607 0 11-5.214 0 2.607 2.607 0 015.214 0zm15.643 0a2.607 2.607 0 11-5.214 0 2.607 2.607 0 015.214 0zm15.643 0a2.607 2.607 0 11-5.214 0 2.607 2.607 0 015.214 0zm15.643 0a2.607 2.607 0 11-5.214 0 2.607 2.607 0 015.214 0zm15.643 0a2.607 2.607 0 11-5.214 0 2.607 2.607 0 015.214 0zm15.642 0a2.607 2.607 0 11-5.213 0 2.607 2.607 0 015.213 0zm15.643 0a2.607 2.607 0 11-5.214 0 2.607 2.607 0 015.214 0zm15.643 0a2.607 2.607 0 11-5.214 0 2.607 2.607 0 015.214 0zM36.5 127.75a2.607 2.607 0 11-5.214 0 2.607 2.607 0 015.214 0zm15.643 0a2.607 2.607 0 11-5.214 0 2.607 2.607 0 015.214 0zm15.643 0a2.607 2.607 0 11-5.214 0 2.607 2.607 0 015.214 0zm15.643 0a2.607 2.607 0 11-5.214 0 2.607 2.607 0 015.214 0zm15.642 0a2.607 2.607 0 11-5.213 0 2.607 2.607 0 015.213 0zm15.643 0a2.607 2.607 0 11-5.214 0 2.607 2.607 0 015.214 0zm-62.571 15.643a2.607 2.607 0 11-5.214 0 2.607 2.607 0 015.214 0zm15.643 0a2.607 2.607 0 11-5.214 0 2.607 2.607 0 015.214 0zm15.643 0a2.607 2.607 0 11-5.214 0 2.607 2.607 0 015.214 0zm15.642 0a2.607 2.607 0 11-5.213 0 2.607 2.607 0 015.213 0z" fill="#fff"/></svg>