<svg width="30" height="30" fill="none" xmlns="http://www.w3.org/2000/svg"><path d="M15 30c8.284 0 15-6.716 15-15 0-8.284-6.716-15-15-15C6.716 0 0 6.716 0 15c0 8.284 6.716 15 15 15z" fill="url(#paint0_linear_6319_49161)"/><path d="M12.25 21.875c-.486 0-.403-.183-.571-.646l-1.429-4.703 11-6.526" fill="#C8DAEA"/><path d="M12.25 21.875c.375 0 .54-.172.75-.375l2-1.945-2.495-1.504" fill="#A9C9DD"/><path d="M12.507 18.052l6.045 4.466c.69.38 1.188.184 1.36-.64l2.46-11.595c.252-1.01-.384-1.469-1.044-1.17l-14.45 5.572c-.985.396-.98.946-.179 1.191l3.708 1.158 8.584-5.416c.405-.246.777-.114.472.157" fill="url(#paint1_linear_6319_49161)"/><defs><linearGradient id="paint0_linear_6319_49161" x1="11.252" y1="1.251" x2="3.752" y2="18.75" gradientUnits="userSpaceOnUse"><stop stop-color="#37AEE2"/><stop offset="1" stop-color="#1E96C8"/></linearGradient><linearGradient id="paint1_linear_6319_49161" x1="13.125" y1="15.922" x2="14.727" y2="21.107" gradientUnits="userSpaceOnUse"><stop stop-color="#EFF7FC"/><stop offset="1" stop-color="#fff"/></linearGradient></defs></svg>