<svg width="30" height="30" fill="none" xmlns="http://www.w3.org/2000/svg"><path d="M15 0c8.284 0 15 6.716 15 15 0 8.284-6.716 15-15 15-8.284 0-15-6.716-15-15C0 6.716 6.716 0 15 0z" fill="#7F4DA0"/><path d="M18.997 13.1c-.073-.593-.255-1.059-.579-1.471-.42-.53-.956-.849-1.751-1.037-.518-.126-.728-.111-.915.06-.174.16-.209.481-.075.69.094.15.202.205.503.264.4.074.677.17.93.313.534.309.783.792.81 1.574.012.367.044.48.172.61a.55.55 0 00.84-.093c.066-.107.076-.154.083-.403a3.96 3.96 0 00-.018-.508z" fill="#fff"/><path d="M21.091 13.767c-.105-1.816-.816-3.277-2.087-4.305a5.881 5.881 0 00-2.53-1.167c-.348-.07-.988-.126-1.098-.094a.674.674 0 00-.315.244c-.07.11-.085.355-.026.497.095.238.272.322.768.365.763.067 1.551.335 2.146.733a4.503 4.503 0 011.57 1.798c.302.624.487 1.525.482 2.33-.002.292.043.457.16.577a.539.539 0 00.663.103c.253-.133.312-.366.267-1.08zm2.319 6.992a1.997 1.997 0 00-.177-.356c-.373-.563-2.378-2.132-3.378-2.645-.572-.293-.995-.39-1.309-.299-.337.095-.515.252-1.08.955-.228.281-.462.545-.524.587-.154.107-.456.192-.67.192-.494-.003-1.39-.323-2.08-.744-.536-.326-1.223-.91-1.75-1.488-.622-.68-1.045-1.278-1.38-1.954-.432-.869-.541-1.4-.36-1.788.044-.098.103-.201.13-.234.026-.03.304-.258.612-.507.604-.48.702-.59.814-.92.142-.417.104-.844-.115-1.274a17.793 17.793 0 00-.93-1.497c-.423-.605-1.477-1.898-1.687-2.073-.38-.308-.865-.362-1.4-.154-.566.22-1.626 1.073-2.079 1.67-.408.539-.565.921-.589 1.425-.02.415.015.587.234 1.118 1.714 4.163 4.272 7.486 7.786 10.125 1.835 1.379 3.739 2.429 5.714 3.146 1.151.418 1.652.439 2.24.095.25-.148.865-.78 1.209-1.24.568-.764.778-1.117.837-1.399.042-.192.01-.527-.068-.741z" fill="#fff"/><path d="M23.222 14.185a8.27 8.27 0 00-.572-2.809c-.356-.924-.716-1.527-1.397-2.342-.643-.765-1.143-1.201-1.935-1.687-1.106-.678-2.452-1.126-3.96-1.314-.514-.066-.63-.061-.788.044-.306.2-.302.697.005.893.102.063.192.086.603.14.632.084 1.038.165 1.52.296 1.889.517 3.342 1.572 4.313 3.14.813 1.306 1.15 2.612 1.103 4.28-.017.564-.005.664.081.8.165.252.6.302.824.092.14-.127.165-.223.193-.706.013-.252.016-.624.01-.827z" fill="#fff"/></svg>