<svg width="30" height="30" fill="none" xmlns="http://www.w3.org/2000/svg"><path d="M15 30c8.284 0 15-6.716 15-15 0-8.284-6.716-15-15-15C6.716 0 0 6.716 0 15c0 8.284 6.716 15 15 15z" fill="#25D366"/><path d="M15.494 5.5a8.862 8.862 0 016.31 2.616 8.865 8.865 0 012.61 6.31c-.002 4.917-4.002 8.918-8.92 8.92h-.003a8.914 8.914 0 01-4.262-1.086L6.5 23.5l1.266-4.622a8.903 8.903 0 01-1.19-4.46c0-4.916 4.001-8.918 8.917-8.918zm.003 1.507c-4.089 0-7.414 3.325-7.416 7.412 0 1.4.39 2.766 1.133 3.946l.177.28-.75 2.736 2.806-.736.27.16a7.404 7.404 0 003.774 1.034h.003c4.086 0 7.412-3.326 7.414-7.413a7.37 7.37 0 00-2.17-5.245 7.363 7.363 0 00-5.24-2.174zm-2.733 3.3c.136.008.32-.051.5.383.186.446.632 1.541.688 1.655.056.111.093.242.019.39-.075.149-.111.242-.223.372-.111.13-.234.291-.334.391-.111.111-.228.232-.098.455.13.224.578.953 1.24 1.543.85.759 1.568.995 1.792 1.106.222.112.353.094.483-.055s.557-.651.705-.874c.149-.223.298-.186.502-.111.205.074 1.3.614 1.523.725.222.112.372.167.427.26.056.093.056.54-.13 1.06-.185.52-1.076.995-1.505 1.059-.383.057-.87.082-1.403-.088a12.82 12.82 0 01-1.27-.47c-2.236-.965-3.697-3.216-3.808-3.365-.112-.15-.91-1.21-.91-2.306s.576-1.635.78-1.858a.82.82 0 01.595-.28c.148 0 .297.002.427.009z" fill="#FDFDFD"/></svg>