<svg width="205" height="60" fill="none" xmlns="http://www.w3.org/2000/svg"><path fill-rule="evenodd" clip-rule="evenodd" d="M40.874 58.018a926.26 926.26 0 00-5.377-15.663A394.276 394.276 0 0041.34 30.9a323.015 323.015 0 00-6.312-8.299 109.8 109.8 0 014.793-11.806c5.85-9.742 14.15-12.82 24.897-9.234 5.228 2.776 8.306 7.1 9.234 12.975.663 6.035-.583 11.645-3.74 16.832a75.573 75.573 0 01-12.741 14.377c-5.15 4.527-10.916 8.462-16.598 12.273.144.026-.09-.13 0 0z" fill="#74D424"/><path fill-rule="evenodd" clip-rule="evenodd" d="M35.497 42.355a926.27 926.27 0 015.377 15.663c-1.385 1.77-3.178 2.354-5.377 1.754a140.424 140.424 0 01-25.832-20.69c-3.35-3.58-6-7.632-7.949-12.156-2.207-5.75-2.285-11.516-.234-17.3C5.25 2.386 11.21-.77 19.366.16c7.504 1.58 12.764 5.905 15.78 12.974.156.468.156.935 0 1.403a501.372 501.372 0 00-2.688 8.182 492.321 492.321 0 006.312 8.3l-3.507 10.987c.017.178.094.295.234.35z" fill="#0171ED"/><path fill-rule="evenodd" clip-rule="evenodd" d="M19.503 18.613c.483-.868 1.572-1.252 2.521-.958.25.077.48.19.69.338.856.604 1.12 1.742 1.102 2.79a7.829 7.829 0 01-.066.9c-.176 1.33-1.037 2.685-2.377 2.656-.88-.019-1.722-.617-2.012-1.448a3.13 3.13 0 01-.111-.407 11.503 11.503 0 01-.073-2.647c.037-.418.122-.858.326-1.224z" fill="#010103"/><path fill-rule="evenodd" clip-rule="evenodd" d="M50.938 18.39c.542-.612 1.372-.953 2.16-.734.334.093.63.248.89.465.693.578.873 1.545.904 2.447.004.115.006.23.008.344.015 1.352-.29 2.985-1.58 3.389-.49.153-1.054.132-1.692-.063-.685-.295-1.113-.802-1.286-1.52a13.192 13.192 0 01-.096-2.507c.038-.662.253-1.324.692-1.82z" fill="#010300"/><path fill-rule="evenodd" clip-rule="evenodd" d="M18.421 30.325c.266-.295.688-.397 1.082-.348.705.087 1.163.706 1.506 1.328 1.037 1.878 2.6 3.126 4.686 3.744.45.133.926.182 1.395.22 2.4.188 4.915 3.101 2.542 3.51a5.411 5.411 0 01-.68.07c-4.023.026-7.335-1.455-9.936-4.442-.705-.925-1.03-1.94-.978-3.045.014-.308.08-.62.254-.873.04-.059.083-.113.13-.164z" fill="#010105"/><path fill-rule="evenodd" clip-rule="evenodd" d="M52.693 31.352c.616-.933 1.805-1.762 2.679-1.065.713.569.562 1.669.175 2.494-1.471 3.137-4.025 5.042-7.66 5.717-.983.186-1.97.28-2.96.281-.823.001-1.828-.208-2.22-.93-.678-1.25 1.299-1.96 2.696-2.218a22.301 22.301 0 004.443-1.312c.408-.168.775-.421 1.113-.705.5-.42.929-.921 1.256-1.487.153-.265.312-.523.478-.775z" fill="#020400"/><path d="M146.019 47.013c-3.361 0-5.609-2.226-5.609-5.567v-.406c0-3.298 2.269-5.61 5.481-5.61h.278c2.998 0 5.096 2.12 5.096 5.074v1.585h-7.751c.15 1.477 1.199 2.377 2.72 2.377h.192c1.242 0 2.248-.6 2.912-1.328l1.585 1.991c-1.071 1.092-2.848 1.884-4.561 1.884h-.343zM143.6 40.14h4.646v-.064c-.043-1.456-.899-2.312-2.119-2.312h-.215c-1.241 0-2.077.877-2.312 2.376zm-15.615 6.638V35.644h2.526c.15.428.322 1.156.343 1.649.942-1.157 2.312-1.885 3.897-1.885h.086c2.398 0 3.768 1.542 3.768 4.24v7.13h-3.19v-6.445c0-1.499-.557-2.248-1.799-2.248h-.107c-1.392 0-2.334 1.07-2.334 2.698v5.995h-3.19zm-4.291-12.504c-1.092 0-1.82-.643-1.82-1.606 0-.964.728-1.649 1.82-1.649 1.114 0 1.884.685 1.884 1.649 0 .963-.77 1.606-1.884 1.606zm-1.606 12.504V35.644h3.191v11.134h-3.191zm-6.022 0V31.362h3.191v15.416h-3.191zm-13.131 0V35.644h2.527c.15.428.321 1.156.342 1.649.942-1.157 2.313-1.885 3.897-1.885h.086c2.398 0 3.768 1.542 3.768 4.24v7.13h-3.19v-6.445c0-1.499-.557-2.248-1.799-2.248h-.107c-1.392 0-2.334 1.07-2.334 2.698v5.995h-3.19zm-7.871.235c-3.34 0-5.653-2.248-5.653-5.48v-.643c0-3.233 2.312-5.482 5.653-5.482h.214c3.34 0 5.652 2.249 5.652 5.482v.642c0 3.233-2.312 5.481-5.652 5.481h-.215zm0-2.376h.214c1.413 0 2.355-1.285 2.355-3.233v-.493c0-1.906-.942-3.126-2.355-3.126h-.215c-1.413 0-2.355 1.22-2.355 3.126v.493c0 1.948.942 3.233 2.356 3.233zm-8.448 2.419c-1.092 0-1.97-.813-1.97-1.82v-.128c0-.964.878-1.777 1.97-1.777 1.07 0 1.97.813 1.97 1.777v.128c0 1.007-.9 1.82-1.97 1.82zM195.21 24.313l2.334-4.09c-1.178-.599-1.97-1.648-1.97-3.061v-.386c0-2.14 1.627-3.597 3.918-3.597h5.482v11.134h-2.977v-3.575h-1.605l-1.885 3.575h-3.297zm4.989-5.76h1.841v-3.061h-1.841c-.942 0-1.606.514-1.606 1.37v.236c0 .835.685 1.456 1.606 1.456zm-17.201 5.76V13.18h3.191v4.047h4.004V13.18h3.19v11.134h-3.19v-4.625h-4.004v4.625h-3.191zm-13.089 0V13.18h3.19v4.047h4.004V13.18h3.19v11.134h-3.19v-4.625h-4.004v4.625h-3.19zm-7.183.236c-3.361 0-5.61-2.227-5.61-5.567v-.407c0-3.297 2.27-5.61 5.482-5.61h.278c2.998 0 5.096 2.12 5.096 5.075v1.584h-7.751c.15 1.478 1.199 2.377 2.719 2.377h.193c1.242 0 2.248-.6 2.912-1.328l1.584 1.992c-1.07 1.092-2.847 1.884-4.56 1.884h-.343zm-2.419-6.873h4.646v-.064c-.043-1.456-.899-2.313-2.12-2.313h-.214c-1.242 0-2.077.878-2.312 2.377zm-8.367 6.637v-3.94c-.835.258-1.713.407-2.484.407-2.484 0-3.833-1.349-3.833-3.64v-3.96h3.169v3.532c0 1.05.407 1.563 1.392 1.563.599 0 1.22-.107 1.756-.342v-4.754h3.19v11.134h-3.19zm-15.65 4.368c-.706 0-1.541-.128-2.184-.428v-2.698c.45.3 1.028.493 1.628.493.771 0 1.456-.429 1.884-1.285l-4.561-11.584h3.319l2.826 8.18h.15l2.12-8.18h3.212l-3.747 11.734c-.771 2.355-2.27 3.768-4.647 3.768zm-13.944-4.175c-.556 0-.985-.064-1.434-.236v-2.483c.278.128.621.171.813.171.9 0 1.242-.514 1.285-3.726l.021-5.053h8.586v11.134h-3.19v-8.671h-2.505l-.064 2.74c-.107 4.625-1.156 6.124-3.512 6.124zm-6.961.043c-2.184 0-3.854-.857-4.946-2.677l2.291-1.456c.599 1.092 1.456 1.585 2.505 1.585h.171c.943 0 1.563-.471 1.563-1.135v-.15c0-.707-.535-1.113-1.477-1.113h-1.349v-1.927h1.156c.771 0 1.264-.428 1.264-1.092v-.107c0-.643-.536-1.05-1.349-1.05h-.15c-.985 0-1.799.6-2.248 1.457l-2.142-1.778c1.071-1.284 2.677-2.162 4.797-2.162h.192c2.12 0 3.94 1.263 3.94 2.954v.236c0 .9-.557 1.692-1.413 2.27 1.113.514 1.884 1.477 1.884 2.633v.193c0 1.906-1.948 3.319-4.475 3.319h-.214zm-11.811 0c-3.341 0-5.653-2.248-5.653-5.482v-.642c0-3.233 2.312-5.481 5.653-5.481h.214c3.34 0 5.652 2.248 5.652 5.481v.642c0 3.234-2.312 5.482-5.652 5.482h-.214zm0-2.377h.214c1.413 0 2.355-1.285 2.355-3.233v-.492c0-1.906-.942-3.127-2.355-3.127h-.214c-1.413 0-2.356 1.22-2.356 3.127v.492c0 1.948.943 3.233 2.356 3.233zm-18.35 6.424V13.179h2.527c.128.321.235.814.3 1.242.834-.92 2.055-1.477 3.49-1.477h.192c2.912 0 4.903 2.226 4.903 5.481v.642c0 3.255-1.99 5.482-4.903 5.482h-.193c-1.242 0-2.312-.407-3.126-1.135v5.182h-3.19zm5.546-6.424h.192c1.435 0 2.356-1.285 2.356-3.233v-.492c0-1.906-.921-3.127-2.356-3.127h-.192c-1.435 0-2.356 1.242-2.356 3.127v.492c0 1.948.942 3.233 2.356 3.233z" fill="#000"/></svg>