<svg width="154" height="46" fill="none" xmlns="http://www.w3.org/2000/svg"><path fill-rule="evenodd" clip-rule="evenodd" d="M30.657 43.854a695.284 695.284 0 00-4.033-11.747 295.643 295.643 0 004.383-8.591 243.281 243.281 0 00-4.734-6.225 82.368 82.368 0 013.595-8.854C34.256 1.13 40.48-1.178 48.54 1.51c3.92 2.082 6.23 5.325 6.925 9.731.498 4.526-.437 8.734-2.805 12.624a56.683 56.683 0 01-9.556 10.783c-3.861 3.395-8.186 6.347-12.448 9.205.108.02-.067-.097 0 0z" fill="#B7EF5A"/><path fill-rule="evenodd" clip-rule="evenodd" d="M26.623 32.106a695.58 695.58 0 014.032 11.747c-1.039 1.328-2.383 1.766-4.032 1.316A105.309 105.309 0 017.248 29.652a31.458 31.458 0 01-5.96-9.118C-.37 16.222-.428 11.897 1.111 7.56 3.937 2.129 8.408-.238 14.525.459c5.628 1.185 9.573 4.428 11.835 9.73.117.351.117.702 0 1.053a376.753 376.753 0 00-2.017 6.136 368.239 368.239 0 004.734 6.225l-2.63 8.24c.013.134.071.222.176.263z" fill="#fff"/><path fill-rule="evenodd" clip-rule="evenodd" d="M14.63 14.301c.362-.65 1.178-.938 1.89-.718.187.058.36.142.518.254.641.453.84 1.306.826 2.092a5.89 5.89 0 01-.05.676c-.132.996-.777 2.013-1.782 1.991a1.675 1.675 0 01-1.51-1.086 2.339 2.339 0 01-.083-.305 8.623 8.623 0 01-.054-1.985c.028-.314.091-.644.244-.919z" fill="#010103"/><path fill-rule="evenodd" clip-rule="evenodd" d="M38.207 14.133c.407-.46 1.029-.715 1.62-.55.25.069.473.185.667.348.52.433.655 1.159.678 1.835l.006.258c.011 1.014-.218 2.239-1.185 2.541-.367.115-.79.1-1.27-.047-.512-.22-.834-.6-.963-1.14a9.895 9.895 0 01-.072-1.88c.029-.496.19-.993.519-1.365z" fill="#010300"/><path fill-rule="evenodd" clip-rule="evenodd" d="M13.815 23.082c.2-.221.516-.298.812-.261.528.066.872.53 1.13.996.777 1.409 1.949 2.345 3.513 2.808.339.1.695.137 1.047.165 1.8.141 3.686 2.326 1.907 2.633a4.058 4.058 0 01-.511.052c-3.017.02-5.5-1.09-7.452-3.331-.528-.694-.773-1.455-.733-2.284.01-.231.06-.465.19-.655.03-.044.063-.084.097-.123z" fill="#010105"/><path fill-rule="evenodd" clip-rule="evenodd" d="M39.523 23.852c.462-.7 1.353-1.322 2.009-.799.535.427.421 1.251.131 1.87-1.103 2.353-3.018 3.782-5.745 4.288-.737.14-1.478.21-2.22.21-.617.002-1.37-.155-1.665-.697-.508-.936.974-1.469 2.022-1.663 1.14-.211 2.251-.54 3.333-.984.306-.126.58-.316.834-.529.376-.315.697-.69.942-1.115.115-.199.234-.392.359-.581z" fill="#020400"/><path d="M109.512 35.598c-2.521 0-4.207-1.67-4.207-4.175v-.305c0-2.473 1.702-4.208 4.111-4.208h.208c2.249 0 3.822 1.59 3.822 3.806v1.188h-5.813c.113 1.108.899 1.783 2.04 1.783h.144c.932 0 1.686-.45 2.184-.996l1.188 1.494c-.802.819-2.135 1.413-3.42 1.413h-.257zm-1.815-5.155h3.485v-.048c-.032-1.092-.674-1.734-1.59-1.734h-.16c-.932 0-1.558.658-1.735 1.782zm-11.705 4.979v-8.35h1.895c.112.32.241.866.257 1.236.707-.867 1.734-1.413 2.923-1.413h.064c1.799 0 2.826 1.156 2.826 3.18v5.347h-2.392v-4.834c0-1.124-.418-1.686-1.349-1.686h-.081c-1.044 0-1.75.803-1.75 2.023v4.497h-2.393zm-3.221-9.379c-.819 0-1.365-.482-1.365-1.205 0-.723.546-1.236 1.365-1.236.835 0 1.413.513 1.413 1.236s-.578 1.204-1.413 1.204zm-1.204 9.378v-8.35h2.393v8.35h-2.393zm-4.52.001V23.859h2.393v11.563h-2.393zm-9.844 0v-8.35h1.895c.112.32.24.866.257 1.236.707-.867 1.734-1.413 2.923-1.413h.064c1.799 0 2.826 1.156 2.826 3.18v5.347h-2.393v-4.834c0-1.124-.417-1.686-1.348-1.686h-.08c-1.045 0-1.751.803-1.751 2.023v4.497h-2.393zm-5.909.176c-2.505 0-4.24-1.686-4.24-4.11v-.482c0-2.425 1.735-4.111 4.24-4.111h.16c2.506 0 4.24 1.686 4.24 4.11v.482c0 2.425-1.734 4.111-4.24 4.111h-.16zm0-1.782h.16c1.06 0 1.767-.964 1.767-2.425v-.37c0-1.429-.706-2.344-1.766-2.344h-.16c-1.06 0-1.767.915-1.767 2.345v.369c0 1.461.706 2.425 1.766 2.425zm-6.332 1.814c-.82 0-1.478-.61-1.478-1.365v-.096c0-.723.659-1.333 1.478-1.333.803 0 1.477.61 1.477 1.333v.096c0 .755-.674 1.365-1.477 1.365zm81.444-17.057l1.751-3.067c-.884-.45-1.478-1.237-1.478-2.296v-.29c0-1.605 1.221-2.697 2.939-2.697h4.111v8.35h-2.232v-2.682h-1.205l-1.413 2.682h-2.473zm3.742-4.32h1.381v-2.296h-1.381c-.707 0-1.204.385-1.204 1.028v.176c0 .627.513 1.092 1.204 1.092zm-12.906 4.32v-8.35h2.393v3.035h3.003v-3.035h2.393v8.35h-2.393v-3.469h-3.003v3.47h-2.393zm-9.812 0v-8.35h2.392v3.035h3.003v-3.035h2.393v8.35h-2.393v-3.469h-3.003v3.47h-2.392zm-5.387.177c-2.521 0-4.207-1.67-4.207-4.175v-.305c0-2.473 1.702-4.207 4.111-4.207h.209c2.248 0 3.822 1.59 3.822 3.805v1.189h-5.814c.113 1.108.9 1.782 2.04 1.782h.144c.932 0 1.687-.45 2.184-.995l1.189 1.493c-.803.82-2.136 1.413-3.421 1.413h-.257zm-1.814-5.155h3.484v-.048c-.032-1.092-.674-1.734-1.589-1.734h-.161c-.931 0-1.558.658-1.734 1.782zm-6.281 4.978v-2.955c-.626.193-1.284.306-1.863.306-1.862 0-2.874-1.012-2.874-2.73v-2.971h2.377v2.65c0 .786.305 1.172 1.043 1.172.45 0 .916-.08 1.317-.257v-3.565h2.393v8.35h-2.393zm-11.734 3.277c-.53 0-1.156-.097-1.638-.322v-2.023c.337.224.771.369 1.22.369.579 0 1.092-.321 1.414-.964l-3.42-8.687h2.488l2.12 6.134h.112l1.59-6.134h2.409l-2.81 8.8c-.578 1.766-1.703 2.826-3.485 2.826zm-10.458-3.132c-.418 0-.74-.049-1.076-.177v-1.863c.208.097.465.129.61.129.674 0 .931-.386.963-2.794l.016-3.79h6.44v8.35h-2.393V12.07h-1.879l-.048 2.056c-.08 3.469-.867 4.593-2.633 4.593zm-5.218.032c-1.638 0-2.89-.642-3.71-2.007l1.718-1.092c.45.82 1.092 1.189 1.88 1.189h.128c.706 0 1.172-.354 1.172-.851v-.113c0-.53-.401-.835-1.108-.835h-1.012v-1.445h.867c.579 0 .948-.321.948-.82v-.08c0-.481-.402-.786-1.012-.786h-.112c-.739 0-1.35.45-1.686 1.092l-1.606-1.333c.803-.964 2.007-1.622 3.597-1.622h.144c1.59 0 2.955.947 2.955 2.216v.177c0 .674-.417 1.268-1.06 1.702.835.385 1.413 1.108 1.413 1.975v.145c0 1.429-1.46 2.489-3.356 2.489h-.16zm-8.861 0c-2.505 0-4.24-1.686-4.24-4.11v-.482c0-2.425 1.735-4.111 4.24-4.111h.16c2.506 0 4.24 1.686 4.24 4.11v.483c0 2.424-1.734 4.11-4.24 4.11h-.16zm0-1.782h.16c1.06 0 1.767-.963 1.767-2.425v-.369c0-1.43-.707-2.345-1.766-2.345h-.161c-1.06 0-1.767.916-1.767 2.345v.37c0 1.46.707 2.424 1.767 2.424zm-13.763 4.818V10.223h1.895c.096.241.177.61.225.932.626-.69 1.541-1.108 2.617-1.108h.145c2.184 0 3.677 1.67 3.677 4.11v.483c0 2.44-1.493 4.11-3.677 4.11h-.145c-.931 0-1.734-.304-2.344-.85v3.886h-2.393zm4.16-4.818h.144c1.076 0 1.766-.963 1.766-2.425v-.369c0-1.43-.69-2.345-1.766-2.345h-.145c-1.076 0-1.766.932-1.766 2.345v.37c0 1.46.706 2.424 1.766 2.424z" fill="#fff"/></svg>