<svg width="16" height="16" viewBox="0 0 16 16" fill="none" xmlns="http://www.w3.org/2000/svg">
<path d="M15.9956 0.744763C16.021 0.530354 15.9489 0.339553 15.4347 0.70838C15.4347 0.70838 15.4347 0.70838 15.4344 0.70838C13.9807 1.64461 7.12913 9.49496 6.01433 10.7909C5.93404 10.8842 5.79421 10.8914 5.70491 10.807L4.41068 9.52579L2.82015 8.09353C2.79202 8.0627 2.75296 8.02521 2.70271 7.98772C2.49953 7.83635 2.11063 7.68527 1.48605 7.96466C1.48605 7.96466 -0.456516 8.59178 0.100336 9.48191C0.657188 10.3718 4.69089 14.7924 5.36572 15.2501C5.79203 15.539 5.99767 15.8947 7.28999 14.2983C7.2919 14.2961 7.33341 14.2344 7.40878 14.122C7.40878 14.122 15.2899 2.45614 15.9112 1.05332C15.9142 1.04888 15.9161 1.0461 15.9161 1.0461C15.9161 1.0461 15.9213 1.03333 15.9287 1.01194C15.9344 0.998887 15.9383 0.988611 15.9407 0.980001C15.9893 0.851689 16.0054 0.776424 15.9953 0.744763H15.9956Z" fill="#B7EF5A"/>
</svg>
