<svg width="146" height="146" viewBox="0 0 146 146" fill="none" xmlns="http://www.w3.org/2000/svg">
<path d="M140.786 33.9549C141.191 34.6552 141.584 35.3623 141.967 36.0761C141.272 35.6212 140.807 34.8429 140.786 33.9549Z" fill="white"/>
<path d="M126.511 15.9555C127.726 17.0956 128.904 18.274 130.045 19.4889C129.604 20.3037 128.741 20.8571 127.75 20.8571C126.31 20.8571 125.143 19.6899 125.143 18.25C125.143 17.2585 125.696 16.3963 126.511 15.9555Z" fill="white"/>
<path d="M109.924 4.03264C110.638 4.4156 111.345 4.80931 112.045 5.21356C111.157 5.19283 110.379 4.72805 109.924 4.03264Z" fill="white"/>
<path d="M33.9549 5.21356C34.6552 4.80931 35.3623 4.4156 36.0761 4.03264C35.6212 4.72805 34.8429 5.19283 33.9549 5.21356Z" fill="white"/>
<path d="M15.9555 19.4889C17.0956 18.274 18.274 17.0956 19.4889 15.9555C20.3037 16.3963 20.8571 17.2585 20.8571 18.25C20.8571 19.6899 19.6899 20.8571 18.25 20.8571C17.2585 20.8571 16.3963 20.3037 15.9555 19.4889Z" fill="white"/>
<path d="M4.03264 36.0761C4.4156 35.3623 4.80931 34.6552 5.21356 33.9549C5.19283 34.8429 4.72805 35.6212 4.03264 36.0761Z" fill="white"/>
<path d="M141.967 109.924C141.584 110.638 141.191 111.345 140.786 112.045C140.807 111.157 141.272 110.379 141.967 109.924Z" fill="white"/>
<path d="M130.045 126.511C129.604 125.696 128.741 125.143 127.75 125.143C126.31 125.143 125.143 126.31 125.143 127.75C125.143 128.741 125.696 129.604 126.511 130.045C127.726 128.904 128.904 127.726 130.045 126.511Z" fill="white"/>
<path d="M112.045 140.786C111.157 140.807 110.379 141.272 109.924 141.967C110.638 141.584 111.345 141.191 112.045 140.786Z" fill="white"/>
<path d="M36.0761 141.967C35.6212 141.272 34.8429 140.807 33.9549 140.786C34.6552 141.191 35.3623 141.584 36.0761 141.967Z" fill="white"/>
<path d="M19.4889 130.045C20.3037 129.604 20.8571 128.741 20.8571 127.75C20.8571 126.31 19.6899 125.143 18.25 125.143C17.2585 125.143 16.3963 125.696 15.9555 126.511C17.0956 127.726 18.274 128.904 19.4889 130.045Z" fill="white"/>
<path d="M5.21356 112.045C5.19283 111.157 4.72805 110.379 4.03264 109.924C4.4156 110.638 4.80931 111.345 5.21356 112.045Z" fill="white"/>
<path d="M52.1429 2.60714C52.1429 4.04703 50.9756 5.21429 49.5357 5.21429C48.0958 5.21429 46.9286 4.04703 46.9286 2.60714C46.9286 1.16726 48.0958 0 49.5357 0C50.9756 0 52.1429 1.16726 52.1429 2.60714Z" fill="white"/>
<path d="M67.7857 2.60714C67.7857 4.04703 66.6185 5.21429 65.1786 5.21429C63.7387 5.21429 62.5714 4.04703 62.5714 2.60714C62.5714 1.16726 63.7387 0 65.1786 0C66.6185 0 67.7857 1.16726 67.7857 2.60714Z" fill="white"/>
<path d="M83.4286 2.60714C83.4286 4.04703 82.2613 5.21429 80.8214 5.21429C79.3815 5.21429 78.2143 4.04703 78.2143 2.60714C78.2143 1.16726 79.3815 0 80.8214 0C82.2613 0 83.4286 1.16726 83.4286 2.60714Z" fill="white"/>
<path d="M99.0714 2.60714C99.0714 4.04703 97.9042 5.21429 96.4643 5.21429C95.0244 5.21429 93.8571 4.04703 93.8571 2.60714C93.8571 1.16726 95.0244 0 96.4643 0C97.9042 0 99.0714 1.16726 99.0714 2.60714Z" fill="white"/>
<path d="M36.5 18.25C36.5 19.6899 35.3327 20.8571 33.8929 20.8571C32.453 20.8571 31.2857 19.6899 31.2857 18.25C31.2857 16.8101 32.453 15.6429 33.8929 15.6429C35.3327 15.6429 36.5 16.8101 36.5 18.25Z" fill="white"/>
<path d="M52.1429 18.25C52.1429 19.6899 50.9756 20.8571 49.5357 20.8571C48.0958 20.8571 46.9286 19.6899 46.9286 18.25C46.9286 16.8101 48.0958 15.6429 49.5357 15.6429C50.9756 15.6429 52.1429 16.8101 52.1429 18.25Z" fill="white"/>
<path d="M67.7857 18.25C67.7857 19.6899 66.6185 20.8571 65.1786 20.8571C63.7387 20.8571 62.5714 19.6899 62.5714 18.25C62.5714 16.8101 63.7387 15.6429 65.1786 15.6429C66.6185 15.6429 67.7857 16.8101 67.7857 18.25Z" fill="white"/>
<path d="M83.4286 18.25C83.4286 19.6899 82.2613 20.8571 80.8214 20.8571C79.3815 20.8571 78.2143 19.6899 78.2143 18.25C78.2143 16.8101 79.3815 15.6429 80.8214 15.6429C82.2613 15.6429 83.4286 16.8101 83.4286 18.25Z" fill="white"/>
<path d="M99.0714 18.25C99.0714 19.6899 97.9042 20.8571 96.4643 20.8571C95.0244 20.8571 93.8571 19.6899 93.8571 18.25C93.8571 16.8101 95.0244 15.6429 96.4643 15.6429C97.9042 15.6429 99.0714 16.8101 99.0714 18.25Z" fill="white"/>
<path d="M114.714 18.25C114.714 19.6899 113.547 20.8571 112.107 20.8571C110.667 20.8571 109.5 19.6899 109.5 18.25C109.5 16.8101 110.667 15.6429 112.107 15.6429C113.547 15.6429 114.714 16.8101 114.714 18.25Z" fill="white"/>
<path d="M20.8571 33.8929C20.8571 35.3327 19.6899 36.5 18.25 36.5C16.8101 36.5 15.6429 35.3327 15.6429 33.8929C15.6429 32.453 16.8101 31.2857 18.25 31.2857C19.6899 31.2857 20.8571 32.453 20.8571 33.8929Z" fill="white"/>
<path d="M36.5 33.8929C36.5 35.3327 35.3327 36.5 33.8929 36.5C32.453 36.5 31.2857 35.3327 31.2857 33.8929C31.2857 32.453 32.453 31.2857 33.8929 31.2857C35.3327 31.2857 36.5 32.453 36.5 33.8929Z" fill="white"/>
<path d="M52.1429 33.8929C52.1429 35.3327 50.9756 36.5 49.5357 36.5C48.0958 36.5 46.9286 35.3327 46.9286 33.8929C46.9286 32.453 48.0958 31.2857 49.5357 31.2857C50.9756 31.2857 52.1429 32.453 52.1429 33.8929Z" fill="white"/>
<path d="M67.7857 33.8929C67.7857 35.3327 66.6185 36.5 65.1786 36.5C63.7387 36.5 62.5714 35.3327 62.5714 33.8929C62.5714 32.453 63.7387 31.2857 65.1786 31.2857C66.6185 31.2857 67.7857 32.453 67.7857 33.8929Z" fill="white"/>
<path d="M83.4286 33.8929C83.4286 35.3327 82.2613 36.5 80.8214 36.5C79.3815 36.5 78.2143 35.3327 78.2143 33.8929C78.2143 32.453 79.3815 31.2857 80.8214 31.2857C82.2613 31.2857 83.4286 32.453 83.4286 33.8929Z" fill="white"/>
<path d="M99.0714 33.8929C99.0714 35.3327 97.9042 36.5 96.4643 36.5C95.0244 36.5 93.8571 35.3327 93.8571 33.8929C93.8571 32.453 95.0244 31.2857 96.4643 31.2857C97.9042 31.2857 99.0714 32.453 99.0714 33.8929Z" fill="white"/>
<path d="M114.714 33.8929C114.714 35.3327 113.547 36.5 112.107 36.5C110.667 36.5 109.5 35.3327 109.5 33.8929C109.5 32.453 110.667 31.2857 112.107 31.2857C113.547 31.2857 114.714 32.453 114.714 33.8929Z" fill="white"/>
<path d="M130.357 33.8929C130.357 35.3327 129.19 36.5 127.75 36.5C126.31 36.5 125.143 35.3327 125.143 33.8929C125.143 32.453 126.31 31.2857 127.75 31.2857C129.19 31.2857 130.357 32.453 130.357 33.8929Z" fill="white"/>
<path d="M5.21429 49.5357C5.21429 50.9756 4.04703 52.1429 2.60714 52.1429C1.16726 52.1429 0 50.9756 0 49.5357C0 48.0958 1.16726 46.9286 2.60714 46.9286C4.04703 46.9286 5.21429 48.0958 5.21429 49.5357Z" fill="white"/>
<path d="M20.8571 49.5357C20.8571 50.9756 19.6899 52.1429 18.25 52.1429C16.8101 52.1429 15.6429 50.9756 15.6429 49.5357C15.6429 48.0958 16.8101 46.9286 18.25 46.9286C19.6899 46.9286 20.8571 48.0958 20.8571 49.5357Z" fill="white"/>
<path d="M36.5 49.5357C36.5 50.9756 35.3327 52.1429 33.8929 52.1429C32.453 52.1429 31.2857 50.9756 31.2857 49.5357C31.2857 48.0958 32.453 46.9286 33.8929 46.9286C35.3327 46.9286 36.5 48.0958 36.5 49.5357Z" fill="white"/>
<path d="M52.1429 49.5357C52.1429 50.9756 50.9756 52.1429 49.5357 52.1429C48.0958 52.1429 46.9286 50.9756 46.9286 49.5357C46.9286 48.0958 48.0958 46.9286 49.5357 46.9286C50.9756 46.9286 52.1429 48.0958 52.1429 49.5357Z" fill="white"/>
<path d="M67.7857 49.5357C67.7857 50.9756 66.6185 52.1429 65.1786 52.1429C63.7387 52.1429 62.5714 50.9756 62.5714 49.5357C62.5714 48.0958 63.7387 46.9286 65.1786 46.9286C66.6185 46.9286 67.7857 48.0958 67.7857 49.5357Z" fill="white"/>
<path d="M83.4286 49.5357C83.4286 50.9756 82.2613 52.1429 80.8214 52.1429C79.3815 52.1429 78.2143 50.9756 78.2143 49.5357C78.2143 48.0958 79.3815 46.9286 80.8214 46.9286C82.2613 46.9286 83.4286 48.0958 83.4286 49.5357Z" fill="white"/>
<path d="M99.0714 49.5357C99.0714 50.9756 97.9042 52.1429 96.4643 52.1429C95.0244 52.1429 93.8571 50.9756 93.8571 49.5357C93.8571 48.0958 95.0244 46.9286 96.4643 46.9286C97.9042 46.9286 99.0714 48.0958 99.0714 49.5357Z" fill="white"/>
<path d="M114.714 49.5357C114.714 50.9756 113.547 52.1429 112.107 52.1429C110.667 52.1429 109.5 50.9756 109.5 49.5357C109.5 48.0958 110.667 46.9286 112.107 46.9286C113.547 46.9286 114.714 48.0958 114.714 49.5357Z" fill="white"/>
<path d="M130.357 49.5357C130.357 50.9756 129.19 52.1429 127.75 52.1429C126.31 52.1429 125.143 50.9756 125.143 49.5357C125.143 48.0958 126.31 46.9286 127.75 46.9286C129.19 46.9286 130.357 48.0958 130.357 49.5357Z" fill="white"/>
<path d="M146 49.5357C146 50.9756 144.833 52.1429 143.393 52.1429C141.953 52.1429 140.786 50.9756 140.786 49.5357C140.786 48.0958 141.953 46.9286 143.393 46.9286C144.833 46.9286 146 48.0958 146 49.5357Z" fill="white"/>
<path d="M5.21429 65.1786C5.21429 66.6185 4.04703 67.7857 2.60714 67.7857C1.16726 67.7857 0 66.6185 0 65.1786C0 63.7387 1.16726 62.5714 2.60714 62.5714C4.04703 62.5714 5.21429 63.7387 5.21429 65.1786Z" fill="white"/>
<path d="M20.8571 65.1786C20.8571 66.6185 19.6899 67.7857 18.25 67.7857C16.8101 67.7857 15.6429 66.6185 15.6429 65.1786C15.6429 63.7387 16.8101 62.5714 18.25 62.5714C19.6899 62.5714 20.8571 63.7387 20.8571 65.1786Z" fill="white"/>
<path d="M36.5 65.1786C36.5 66.6185 35.3327 67.7857 33.8929 67.7857C32.453 67.7857 31.2857 66.6185 31.2857 65.1786C31.2857 63.7387 32.453 62.5714 33.8929 62.5714C35.3327 62.5714 36.5 63.7387 36.5 65.1786Z" fill="white"/>
<path d="M52.1429 65.1786C52.1429 66.6185 50.9756 67.7857 49.5357 67.7857C48.0958 67.7857 46.9286 66.6185 46.9286 65.1786C46.9286 63.7387 48.0958 62.5714 49.5357 62.5714C50.9756 62.5714 52.1429 63.7387 52.1429 65.1786Z" fill="white"/>
<path d="M67.7857 65.1786C67.7857 66.6185 66.6185 67.7857 65.1786 67.7857C63.7387 67.7857 62.5714 66.6185 62.5714 65.1786C62.5714 63.7387 63.7387 62.5714 65.1786 62.5714C66.6185 62.5714 67.7857 63.7387 67.7857 65.1786Z" fill="white"/>
<path d="M83.4286 65.1786C83.4286 66.6185 82.2613 67.7857 80.8214 67.7857C79.3815 67.7857 78.2143 66.6185 78.2143 65.1786C78.2143 63.7387 79.3815 62.5714 80.8214 62.5714C82.2613 62.5714 83.4286 63.7387 83.4286 65.1786Z" fill="white"/>
<path d="M99.0714 65.1786C99.0714 66.6185 97.9042 67.7857 96.4643 67.7857C95.0244 67.7857 93.8571 66.6185 93.8571 65.1786C93.8571 63.7387 95.0244 62.5714 96.4643 62.5714C97.9042 62.5714 99.0714 63.7387 99.0714 65.1786Z" fill="white"/>
<path d="M114.714 65.1786C114.714 66.6185 113.547 67.7857 112.107 67.7857C110.667 67.7857 109.5 66.6185 109.5 65.1786C109.5 63.7387 110.667 62.5714 112.107 62.5714C113.547 62.5714 114.714 63.7387 114.714 65.1786Z" fill="white"/>
<path d="M130.357 65.1786C130.357 66.6185 129.19 67.7857 127.75 67.7857C126.31 67.7857 125.143 66.6185 125.143 65.1786C125.143 63.7387 126.31 62.5714 127.75 62.5714C129.19 62.5714 130.357 63.7387 130.357 65.1786Z" fill="white"/>
<path d="M146 65.1786C146 66.6185 144.833 67.7857 143.393 67.7857C141.953 67.7857 140.786 66.6185 140.786 65.1786C140.786 63.7387 141.953 62.5714 143.393 62.5714C144.833 62.5714 146 63.7387 146 65.1786Z" fill="white"/>
<path d="M5.21429 80.8214C5.21429 82.2613 4.04703 83.4286 2.60714 83.4286C1.16726 83.4286 0 82.2613 0 80.8214C0 79.3815 1.16726 78.2143 2.60714 78.2143C4.04703 78.2143 5.21429 79.3815 5.21429 80.8214Z" fill="white"/>
<path d="M20.8571 80.8214C20.8571 82.2613 19.6899 83.4286 18.25 83.4286C16.8101 83.4286 15.6429 82.2613 15.6429 80.8214C15.6429 79.3815 16.8101 78.2143 18.25 78.2143C19.6899 78.2143 20.8571 79.3815 20.8571 80.8214Z" fill="white"/>
<path d="M36.5 80.8214C36.5 82.2613 35.3327 83.4286 33.8929 83.4286C32.453 83.4286 31.2857 82.2613 31.2857 80.8214C31.2857 79.3815 32.453 78.2143 33.8929 78.2143C35.3327 78.2143 36.5 79.3815 36.5 80.8214Z" fill="white"/>
<path d="M52.1429 80.8214C52.1429 82.2613 50.9756 83.4286 49.5357 83.4286C48.0958 83.4286 46.9286 82.2613 46.9286 80.8214C46.9286 79.3815 48.0958 78.2143 49.5357 78.2143C50.9756 78.2143 52.1429 79.3815 52.1429 80.8214Z" fill="white"/>
<path d="M67.7857 80.8214C67.7857 82.2613 66.6185 83.4286 65.1786 83.4286C63.7387 83.4286 62.5714 82.2613 62.5714 80.8214C62.5714 79.3815 63.7387 78.2143 65.1786 78.2143C66.6185 78.2143 67.7857 79.3815 67.7857 80.8214Z" fill="white"/>
<path d="M83.4286 80.8214C83.4286 82.2613 82.2613 83.4286 80.8214 83.4286C79.3815 83.4286 78.2143 82.2613 78.2143 80.8214C78.2143 79.3815 79.3815 78.2143 80.8214 78.2143C82.2613 78.2143 83.4286 79.3815 83.4286 80.8214Z" fill="white"/>
<path d="M99.0714 80.8214C99.0714 82.2613 97.9042 83.4286 96.4643 83.4286C95.0244 83.4286 93.8571 82.2613 93.8571 80.8214C93.8571 79.3815 95.0244 78.2143 96.4643 78.2143C97.9042 78.2143 99.0714 79.3815 99.0714 80.8214Z" fill="white"/>
<path d="M114.714 80.8214C114.714 82.2613 113.547 83.4286 112.107 83.4286C110.667 83.4286 109.5 82.2613 109.5 80.8214C109.5 79.3815 110.667 78.2143 112.107 78.2143C113.547 78.2143 114.714 79.3815 114.714 80.8214Z" fill="white"/>
<path d="M130.357 80.8214C130.357 82.2613 129.19 83.4286 127.75 83.4286C126.31 83.4286 125.143 82.2613 125.143 80.8214C125.143 79.3815 126.31 78.2143 127.75 78.2143C129.19 78.2143 130.357 79.3815 130.357 80.8214Z" fill="white"/>
<path d="M146 80.8214C146 82.2613 144.833 83.4286 143.393 83.4286C141.953 83.4286 140.786 82.2613 140.786 80.8214C140.786 79.3815 141.953 78.2143 143.393 78.2143C144.833 78.2143 146 79.3815 146 80.8214Z" fill="white"/>
<path d="M5.21429 96.4643C5.21429 97.9042 4.04703 99.0714 2.60714 99.0714C1.16726 99.0714 0 97.9042 0 96.4643C0 95.0244 1.16726 93.8571 2.60714 93.8571C4.04703 93.8571 5.21429 95.0244 5.21429 96.4643Z" fill="white"/>
<path d="M20.8571 96.4643C20.8571 97.9042 19.6899 99.0714 18.25 99.0714C16.8101 99.0714 15.6429 97.9042 15.6429 96.4643C15.6429 95.0244 16.8101 93.8571 18.25 93.8571C19.6899 93.8571 20.8571 95.0244 20.8571 96.4643Z" fill="white"/>
<path d="M36.5 96.4643C36.5 97.9042 35.3327 99.0714 33.8929 99.0714C32.453 99.0714 31.2857 97.9042 31.2857 96.4643C31.2857 95.0244 32.453 93.8571 33.8929 93.8571C35.3327 93.8571 36.5 95.0244 36.5 96.4643Z" fill="white"/>
<path d="M52.1429 96.4643C52.1429 97.9042 50.9756 99.0714 49.5357 99.0714C48.0958 99.0714 46.9286 97.9042 46.9286 96.4643C46.9286 95.0244 48.0958 93.8571 49.5357 93.8571C50.9756 93.8571 52.1429 95.0244 52.1429 96.4643Z" fill="white"/>
<path d="M67.7857 96.4643C67.7857 97.9042 66.6185 99.0714 65.1786 99.0714C63.7387 99.0714 62.5714 97.9042 62.5714 96.4643C62.5714 95.0244 63.7387 93.8571 65.1786 93.8571C66.6185 93.8571 67.7857 95.0244 67.7857 96.4643Z" fill="white"/>
<path d="M83.4286 96.4643C83.4286 97.9042 82.2613 99.0714 80.8214 99.0714C79.3815 99.0714 78.2143 97.9042 78.2143 96.4643C78.2143 95.0244 79.3815 93.8571 80.8214 93.8571C82.2613 93.8571 83.4286 95.0244 83.4286 96.4643Z" fill="white"/>
<path d="M99.0714 96.4643C99.0714 97.9042 97.9042 99.0714 96.4643 99.0714C95.0244 99.0714 93.8571 97.9042 93.8571 96.4643C93.8571 95.0244 95.0244 93.8571 96.4643 93.8571C97.9042 93.8571 99.0714 95.0244 99.0714 96.4643Z" fill="white"/>
<path d="M114.714 96.4643C114.714 97.9042 113.547 99.0714 112.107 99.0714C110.667 99.0714 109.5 97.9042 109.5 96.4643C109.5 95.0244 110.667 93.8571 112.107 93.8571C113.547 93.8571 114.714 95.0244 114.714 96.4643Z" fill="white"/>
<path d="M130.357 96.4643C130.357 97.9042 129.19 99.0714 127.75 99.0714C126.31 99.0714 125.143 97.9042 125.143 96.4643C125.143 95.0244 126.31 93.8571 127.75 93.8571C129.19 93.8571 130.357 95.0244 130.357 96.4643Z" fill="white"/>
<path d="M146 96.4643C146 97.9042 144.833 99.0714 143.393 99.0714C141.953 99.0714 140.786 97.9042 140.786 96.4643C140.786 95.0244 141.953 93.8571 143.393 93.8571C144.833 93.8571 146 95.0244 146 96.4643Z" fill="white"/>
<path d="M20.8571 112.107C20.8571 113.547 19.6899 114.714 18.25 114.714C16.8101 114.714 15.6429 113.547 15.6429 112.107C15.6429 110.667 16.8101 109.5 18.25 109.5C19.6899 109.5 20.8571 110.667 20.8571 112.107Z" fill="white"/>
<path d="M36.5 112.107C36.5 113.547 35.3327 114.714 33.8929 114.714C32.453 114.714 31.2857 113.547 31.2857 112.107C31.2857 110.667 32.453 109.5 33.8929 109.5C35.3327 109.5 36.5 110.667 36.5 112.107Z" fill="white"/>
<path d="M52.1429 112.107C52.1429 113.547 50.9756 114.714 49.5357 114.714C48.0958 114.714 46.9286 113.547 46.9286 112.107C46.9286 110.667 48.0958 109.5 49.5357 109.5C50.9756 109.5 52.1429 110.667 52.1429 112.107Z" fill="white"/>
<path d="M67.7857 112.107C67.7857 113.547 66.6185 114.714 65.1786 114.714C63.7387 114.714 62.5714 113.547 62.5714 112.107C62.5714 110.667 63.7387 109.5 65.1786 109.5C66.6185 109.5 67.7857 110.667 67.7857 112.107Z" fill="white"/>
<path d="M83.4286 112.107C83.4286 113.547 82.2613 114.714 80.8214 114.714C79.3815 114.714 78.2143 113.547 78.2143 112.107C78.2143 110.667 79.3815 109.5 80.8214 109.5C82.2613 109.5 83.4286 110.667 83.4286 112.107Z" fill="white"/>
<path d="M99.0714 112.107C99.0714 113.547 97.9042 114.714 96.4643 114.714C95.0244 114.714 93.8571 113.547 93.8571 112.107C93.8571 110.667 95.0244 109.5 96.4643 109.5C97.9042 109.5 99.0714 110.667 99.0714 112.107Z" fill="white"/>
<path d="M114.714 112.107C114.714 113.547 113.547 114.714 112.107 114.714C110.667 114.714 109.5 113.547 109.5 112.107C109.5 110.667 110.667 109.5 112.107 109.5C113.547 109.5 114.714 110.667 114.714 112.107Z" fill="white"/>
<path d="M130.357 112.107C130.357 113.547 129.19 114.714 127.75 114.714C126.31 114.714 125.143 113.547 125.143 112.107C125.143 110.667 126.31 109.5 127.75 109.5C129.19 109.5 130.357 110.667 130.357 112.107Z" fill="white"/>
<path d="M36.5 127.75C36.5 129.19 35.3327 130.357 33.8929 130.357C32.453 130.357 31.2857 129.19 31.2857 127.75C31.2857 126.31 32.453 125.143 33.8929 125.143C35.3327 125.143 36.5 126.31 36.5 127.75Z" fill="white"/>
<path d="M52.1429 127.75C52.1429 129.19 50.9756 130.357 49.5357 130.357C48.0958 130.357 46.9286 129.19 46.9286 127.75C46.9286 126.31 48.0958 125.143 49.5357 125.143C50.9756 125.143 52.1429 126.31 52.1429 127.75Z" fill="white"/>
<path d="M67.7857 127.75C67.7857 129.19 66.6185 130.357 65.1786 130.357C63.7387 130.357 62.5714 129.19 62.5714 127.75C62.5714 126.31 63.7387 125.143 65.1786 125.143C66.6185 125.143 67.7857 126.31 67.7857 127.75Z" fill="white"/>
<path d="M83.4286 127.75C83.4286 129.19 82.2613 130.357 80.8214 130.357C79.3815 130.357 78.2143 129.19 78.2143 127.75C78.2143 126.31 79.3815 125.143 80.8214 125.143C82.2613 125.143 83.4286 126.31 83.4286 127.75Z" fill="white"/>
<path d="M99.0714 127.75C99.0714 129.19 97.9042 130.357 96.4643 130.357C95.0244 130.357 93.8571 129.19 93.8571 127.75C93.8571 126.31 95.0244 125.143 96.4643 125.143C97.9042 125.143 99.0714 126.31 99.0714 127.75Z" fill="white"/>
<path d="M114.714 127.75C114.714 129.19 113.547 130.357 112.107 130.357C110.667 130.357 109.5 129.19 109.5 127.75C109.5 126.31 110.667 125.143 112.107 125.143C113.547 125.143 114.714 126.31 114.714 127.75Z" fill="white"/>
<path d="M52.1429 143.393C52.1429 144.833 50.9756 146 49.5357 146C48.0958 146 46.9286 144.833 46.9286 143.393C46.9286 141.953 48.0958 140.786 49.5357 140.786C50.9756 140.786 52.1429 141.953 52.1429 143.393Z" fill="white"/>
<path d="M67.7857 143.393C67.7857 144.833 66.6185 146 65.1786 146C63.7387 146 62.5714 144.833 62.5714 143.393C62.5714 141.953 63.7387 140.786 65.1786 140.786C66.6185 140.786 67.7857 141.953 67.7857 143.393Z" fill="white"/>
<path d="M83.4286 143.393C83.4286 144.833 82.2613 146 80.8214 146C79.3815 146 78.2143 144.833 78.2143 143.393C78.2143 141.953 79.3815 140.786 80.8214 140.786C82.2613 140.786 83.4286 141.953 83.4286 143.393Z" fill="white"/>
<path d="M99.0714 143.393C99.0714 144.833 97.9042 146 96.4643 146C95.0244 146 93.8571 144.833 93.8571 143.393C93.8571 141.953 95.0244 140.786 96.4643 140.786C97.9042 140.786 99.0714 141.953 99.0714 143.393Z" fill="white"/>
</svg>
