<svg width="30" height="30" viewBox="0 0 30 30" fill="none" xmlns="http://www.w3.org/2000/svg">
<path d="M15 30C23.2843 30 30 23.2843 30 15C30 6.71573 23.2843 0 15 0C6.71573 0 0 6.71573 0 15C0 23.2843 6.71573 30 15 30Z" fill="url(#paint0_linear_6319_49161)"/>
<path d="M12.25 21.875C11.7641 21.875 11.8466 21.6915 11.679 21.2288L10.25 16.5257L21.25 10" fill="#C8DAEA"/>
<path d="M12.25 21.8749C12.625 21.8749 12.7907 21.7034 13 21.4999L15 19.5552L12.5052 18.0508" fill="#A9C9DD"/>
<path d="M12.5073 18.0522L18.5523 22.5183C19.2422 22.8989 19.74 22.7018 19.9118 21.8778L22.3725 10.2825C22.6244 9.27244 21.9875 8.81434 21.3275 9.11394L6.87879 14.6853C5.89253 15.0809 5.89828 15.6311 6.69902 15.8763L10.4069 17.0336L18.991 11.618C19.3963 11.3722 19.7682 11.5044 19.4629 11.7753" fill="url(#paint1_linear_6319_49161)"/>
<defs>
<linearGradient id="paint0_linear_6319_49161" x1="11.2515" y1="1.251" x2="3.7515" y2="18.75" gradientUnits="userSpaceOnUse">
<stop stop-color="#37AEE2"/>
<stop offset="1" stop-color="#1E96C8"/>
</linearGradient>
<linearGradient id="paint1_linear_6319_49161" x1="13.1246" y1="15.9223" x2="14.7273" y2="21.1066" gradientUnits="userSpaceOnUse">
<stop stop-color="#EFF7FC"/>
<stop offset="1" stop-color="white"/>
</linearGradient>
</defs>
</svg>
