<svg width="30" height="30" viewBox="0 0 30 30" fill="none" xmlns="http://www.w3.org/2000/svg">
<path d="M15 0C23.2843 0 30 6.71573 30 15C30 23.2843 23.2843 30 15 30C6.71573 30 0 23.2843 0 15C0 6.71573 6.71573 0 15 0Z" fill="#7F4DA0"/>
<path d="M18.997 13.0993C18.9241 12.5066 18.7419 12.0412 18.4184 11.629C17.9983 11.0982 17.4615 10.7804 16.6667 10.5918C16.1487 10.4661 15.9394 10.4806 15.7521 10.6517C15.5776 10.812 15.5435 11.1334 15.6769 11.3415C15.7706 11.4926 15.8788 11.5467 16.1797 11.6058C16.5804 11.6795 16.8573 11.7752 17.1092 11.9192C17.6439 12.2279 17.8928 12.711 17.9195 13.4931C17.932 13.8603 17.9637 13.9732 18.092 14.1034C18.3297 14.3415 18.7527 14.2952 18.9322 14.0103C18.9981 13.9029 19.0081 13.8562 19.015 13.6068C19.0196 13.4525 19.013 13.2227 18.997 13.0993V13.0993Z" fill="white"/>
<path d="M21.0913 13.7671C20.9857 11.9512 20.2754 10.4903 19.0043 9.46239C18.2882 8.88482 17.4225 8.48767 16.4736 8.29452C16.126 8.22545 15.486 8.16945 15.3762 8.20148C15.2726 8.23114 15.126 8.34332 15.0607 8.44477C14.9917 8.55478 14.9761 8.80041 15.035 8.94249C15.1301 9.18001 15.307 9.26392 15.8025 9.30727C16.5663 9.3741 17.3541 9.64245 17.9494 10.0397C18.629 10.4921 19.1692 11.1107 19.5187 11.8378C19.8206 12.4624 20.0063 13.3626 20.0012 14.1687C19.9995 14.4603 20.0445 14.6249 20.1617 14.7453C20.3387 14.9304 20.5967 14.9709 20.8244 14.8479C21.0767 14.7152 21.1357 14.4823 21.0913 13.7671V13.7671Z" fill="white"/>
<path d="M23.4103 20.759C23.3747 20.6552 23.2919 20.4951 23.2326 20.4031C22.8596 19.8398 20.8554 18.2714 19.8548 17.7584C19.2834 17.4649 18.8601 17.3671 18.5463 17.459C18.2088 17.5539 18.0312 17.711 17.4657 18.4137C17.2378 18.6954 17.0039 18.9593 16.9417 19.0007C16.7878 19.1075 16.4858 19.1935 16.2727 19.1935C15.7783 19.1905 14.8813 18.8703 14.1915 18.4493C13.6557 18.1232 12.9689 17.5391 12.4419 16.9609C11.8202 16.2819 11.3969 15.683 11.0623 15.007C10.6301 14.1383 10.5206 13.6076 10.7011 13.2192C10.7456 13.1213 10.8048 13.0176 10.8314 12.9849C10.858 12.9553 11.1363 12.727 11.4442 12.4779C12.0481 11.9976 12.1458 11.8879 12.2583 11.5588C12.4004 11.1407 12.362 10.7138 12.1429 10.2839C11.9741 9.95776 11.533 9.24619 11.2133 8.78664C10.79 8.18182 9.73605 6.88912 9.52582 6.71414C9.1469 6.40581 8.66143 6.35241 8.12554 6.56C7.56015 6.77941 6.50029 7.63329 6.04733 8.22925C5.63879 8.76885 5.48194 9.15131 5.45823 9.65535C5.43752 10.0704 5.47303 10.2424 5.69211 10.7731C7.4062 14.9358 9.96397 18.2595 13.478 20.8983C15.3135 22.277 17.217 23.3266 19.1916 24.0441C20.3432 24.4621 20.8436 24.4829 21.4327 24.139C21.6813 23.9907 22.2971 23.3592 22.6405 22.8996C23.2089 22.1347 23.4191 21.7819 23.4783 21.5002C23.5198 21.3075 23.4872 20.9725 23.4103 20.759V20.759Z" fill="white"/>
<path d="M23.2217 14.1853C23.1838 13.1581 23.0108 12.3156 22.6502 11.3763C22.2942 10.4523 21.9339 9.84935 21.2534 9.03384C20.61 8.2692 20.1103 7.8326 19.3178 7.34661C18.2121 6.66949 16.8665 6.2214 15.3585 6.03295C14.8442 5.96709 14.7279 5.97179 14.5701 6.07707C14.2644 6.2765 14.2685 6.77392 14.5752 6.97036C14.6767 7.03285 14.7668 7.05561 15.1781 7.10945C15.8096 7.19447 16.2157 7.2746 16.6975 7.40606C18.5869 7.92254 20.0398 8.97826 21.0112 10.5454C21.8241 11.8517 22.1615 13.158 22.1136 14.8264C22.0969 15.3905 22.109 15.4897 22.1953 15.6252C22.3604 15.8778 22.7958 15.9278 23.0192 15.7182C23.1582 15.5905 23.1844 15.4946 23.2118 15.0118C23.2249 14.76 23.2277 14.3882 23.2217 14.1853V14.1853Z" fill="white"/>
</svg>
