<svg width="30" height="30" viewBox="0 0 30 30" fill="none" xmlns="http://www.w3.org/2000/svg">
<path d="M15 30C23.2843 30 30 23.2843 30 15C30 6.71573 23.2843 0 15 0C6.71573 0 0 6.71573 0 15C0 23.2843 6.71573 30 15 30Z" fill="#25D366"/>
<path d="M15.4941 5.5C17.8802 5.50103 20.1197 6.43024 21.8037 8.11621C23.4876 9.80204 24.415 12.0426 24.4141 14.4258C24.4121 19.3425 20.4119 23.3437 15.4941 23.3457H15.4912C13.9985 23.3452 12.5313 22.9703 11.2285 22.2598L6.5 23.5L7.76562 18.8779C6.98508 17.5252 6.57453 15.991 6.5752 14.4189C6.57715 9.50117 10.5779 5.50011 15.4941 5.5ZM15.4971 7.00684C11.4081 7.00698 8.08293 10.3318 8.08105 14.4189C8.08048 15.8198 8.47176 17.1849 9.21387 18.3652L9.39062 18.6455L8.6416 21.3809L11.4473 20.6445L11.7178 20.8057C12.856 21.4811 14.161 21.8383 15.4912 21.8389H15.4941C19.5801 21.8389 22.9064 18.5134 22.9082 14.4258C22.909 12.4449 22.138 10.582 20.7383 9.18066C19.3386 7.77942 17.4772 7.00752 15.4971 7.00684ZM12.7637 10.3076C12.9005 10.3145 13.0837 10.2559 13.2646 10.6904C13.4502 11.1362 13.8957 12.2312 13.9521 12.3447C14.0079 12.4563 14.0449 12.5866 13.9707 12.7354C13.8964 12.884 13.8595 12.9773 13.748 13.1074C13.6367 13.2375 13.5143 13.3981 13.4141 13.498C13.3025 13.6092 13.1864 13.73 13.3164 13.9531C13.4468 14.1769 13.8938 14.9056 14.5557 15.4961C15.4065 16.255 16.1243 16.4909 16.3477 16.6025C16.5704 16.7141 16.701 16.6956 16.8311 16.5469C16.9612 16.398 17.3876 15.8959 17.5361 15.6729C17.6847 15.4498 17.8338 15.4872 18.0381 15.5615C18.2427 15.6361 19.3376 16.1755 19.5605 16.2871C19.7834 16.3987 19.9326 16.4539 19.9883 16.5469C20.0439 16.6399 20.0438 17.0861 19.8584 17.6064C19.6726 18.127 18.7817 18.6021 18.3535 18.666C17.9696 18.7234 17.4839 18.7477 16.9502 18.5781C16.6265 18.4754 16.2114 18.338 15.6797 18.1084C13.444 17.143 11.9835 14.892 11.8721 14.7432C11.7599 14.5935 10.9619 13.5339 10.9619 12.4375C10.9621 11.3412 11.5378 10.8023 11.7422 10.5791C11.9465 10.356 12.1883 10.2998 12.3369 10.2998C12.4853 10.2998 12.6339 10.3011 12.7637 10.3076Z" fill="#FDFDFD"/>
</svg>
