<svg width="154" height="46" viewBox="0 0 154 46" fill="none" xmlns="http://www.w3.org/2000/svg">
<path fill-rule="evenodd" clip-rule="evenodd" d="M30.6568 43.8541C29.3472 39.9252 28.0029 36.0095 26.6241 32.1068C28.1278 29.275 29.5888 26.4113 31.0074 23.5155C29.4631 21.4159 27.8851 19.341 26.2734 17.2912C27.2993 14.2725 28.4974 11.3209 29.8678 8.4369C34.2558 1.13027 40.4801 -1.17833 48.5407 1.51127C52.4616 3.59282 54.7702 6.83647 55.4663 11.2422C55.9637 15.7684 55.0287 19.9764 52.661 23.8662C49.9461 27.8537 46.761 31.4481 43.1054 34.6491C39.2435 38.0444 34.9186 40.9958 30.6568 43.8541C30.7649 43.8735 30.5896 43.7566 30.6568 43.8541Z" fill="#B7EF5A"/>
<path fill-rule="evenodd" clip-rule="evenodd" d="M26.6227 32.1063C28.0015 36.009 29.3458 39.9247 30.6554 43.8535C29.6165 45.1808 28.2722 45.6191 26.6227 45.1685C19.5724 40.7756 13.1144 35.6033 7.24847 29.6516C4.73578 26.9662 2.74874 23.9272 1.28716 20.5343C-0.368502 16.2222 -0.426888 11.8973 1.11183 7.55971C3.93679 2.12879 8.40777 -0.238203 14.5248 0.458743C20.1526 1.64382 24.0976 4.88747 26.3597 10.1897C26.4767 10.5404 26.4767 10.891 26.3597 11.2417C25.6696 13.2827 24.9976 15.3283 24.3434 17.3783C25.901 19.472 27.479 21.5467 29.0774 23.6026C28.2014 26.3476 27.3247 29.0944 26.4474 31.8433C26.4597 31.9774 26.518 32.0651 26.6227 32.1063Z" fill="white"/>
<path fill-rule="evenodd" clip-rule="evenodd" d="M14.6293 14.3014C14.9918 13.6505 15.8085 13.3626 16.5201 13.5828C16.7074 13.6407 16.8799 13.7254 17.0375 13.8366C17.6793 14.2898 17.8775 15.1434 17.8645 15.929C17.8607 16.156 17.844 16.3812 17.8144 16.6046C17.6824 17.6012 17.0369 18.6179 16.0317 18.5963V18.5963C15.3714 18.5821 14.7405 18.1333 14.5227 17.5097C14.4885 17.4117 14.4607 17.3101 14.4393 17.2049C14.3447 16.5432 14.3266 15.8816 14.385 15.2199C14.4127 14.9064 14.4762 14.5764 14.6293 14.3014V14.3014Z" fill="#010103"/>
<path fill-rule="evenodd" clip-rule="evenodd" d="M38.2067 14.1327C38.6135 13.6733 39.2357 13.4175 39.8268 13.5822C40.077 13.6519 40.2995 13.768 40.4943 13.9307C41.0137 14.3644 41.1488 15.0896 41.172 15.7658C41.175 15.852 41.1769 15.9382 41.1779 16.0244C41.1894 17.038 40.9603 18.2629 39.9928 18.5655C39.6258 18.6803 39.2028 18.6646 38.7239 18.5182C38.2105 18.2973 37.8892 17.9174 37.7596 17.3786C37.676 16.7519 37.6521 16.1252 37.6881 15.4985C37.7165 15.0021 37.8771 14.505 38.2067 14.1327V14.1327Z" fill="#010300"/>
<path fill-rule="evenodd" clip-rule="evenodd" d="M13.8154 23.0821C14.0149 22.8607 14.3311 22.7843 14.6268 22.821V22.821C15.1555 22.8866 15.4987 23.3509 15.7563 23.8172C16.5341 25.2258 17.7056 26.1618 19.2704 26.6252C19.6088 26.7254 19.9651 26.762 20.3169 26.7897V26.7897C22.1174 26.9311 24.0035 29.1163 22.2237 29.4229C22.0689 29.4496 21.8986 29.4669 21.7128 29.475C18.6964 29.4946 16.2125 28.3842 14.2612 26.1436C13.7329 25.4502 13.4883 24.689 13.5275 23.8601C13.5384 23.629 13.5873 23.3953 13.7186 23.2049C13.7485 23.1614 13.7808 23.1205 13.8154 23.0821Z" fill="#010105"/>
<path fill-rule="evenodd" clip-rule="evenodd" d="M39.5228 23.852C39.9849 23.1519 40.8761 22.53 41.5319 23.053V23.053C42.0665 23.4795 41.9534 24.3043 41.663 24.9234C40.5596 27.2759 38.6447 28.7051 35.9184 29.2111C35.1806 29.3508 34.4404 29.421 33.6976 29.4219C33.0811 29.4226 32.3271 29.2659 32.0331 28.724V28.724C31.5249 27.7875 33.0072 27.255 34.055 27.0611C35.1953 26.85 36.3061 26.5219 37.3876 26.0767C37.6937 25.9507 37.9685 25.7611 38.222 25.5483V25.5483C38.5977 25.2329 38.919 24.8573 39.1642 24.4325C39.2787 24.2341 39.3983 24.0406 39.5228 23.852Z" fill="#020400"/>
<path d="M109.512 35.5979C106.991 35.5979 105.305 33.9278 105.305 31.4226V31.1175C105.305 28.6445 107.007 26.9102 109.416 26.9102H109.624C111.873 26.9102 113.446 28.5 113.446 30.7161V31.9044H107.633C107.746 33.0124 108.532 33.6869 109.673 33.6869H109.817C110.749 33.6869 111.503 33.2373 112.001 32.6913L113.189 34.1847C112.387 35.0037 111.054 35.5979 109.769 35.5979H109.512ZM107.697 30.4431H111.182V30.3949C111.15 29.3029 110.508 28.6606 109.592 28.6606H109.432C108.5 28.6606 107.874 29.319 107.697 30.4431Z" fill="white"/>
<path d="M95.9922 35.4217V27.0712H97.8871C97.9995 27.3924 98.128 27.9383 98.144 28.3077C98.8506 27.4405 99.8784 26.8945 101.067 26.8945H101.131C102.93 26.8945 103.957 28.0508 103.957 30.0741V35.4217H101.565V30.588C101.565 29.4639 101.147 28.9019 100.216 28.9019H100.135C99.0915 28.9019 98.3849 29.7048 98.3849 30.9253V35.4217H95.9922Z" fill="white"/>
<path d="M92.7712 26.0425C91.9522 26.0425 91.4062 25.5607 91.4062 24.8381C91.4062 24.1154 91.9522 23.6016 92.7712 23.6016C93.6063 23.6016 94.1844 24.1154 94.1844 24.8381C94.1844 25.5607 93.6063 26.0425 92.7712 26.0425ZM91.5668 35.4207V27.0702H93.9596V35.4207H91.5668Z" fill="white"/>
<path d="M87.0469 35.4216V23.8594H89.4396V35.4216H87.0469Z" fill="white"/>
<path d="M77.2031 35.4217V27.0712H79.098C79.2105 27.3924 79.3389 27.9383 79.355 28.3077C80.0616 27.4405 81.0893 26.8945 82.2777 26.8945H82.3419C84.1405 26.8945 85.1682 28.0508 85.1682 30.0741V35.4217H82.7755V30.588C82.7755 29.4639 82.358 28.9019 81.4266 28.9019H81.3463C80.3024 28.9019 79.5959 29.7048 79.5959 30.9253V35.4217H77.2031Z" fill="white"/>
<path d="M71.2942 35.5983C68.789 35.5983 67.0547 33.9122 67.0547 31.4873V31.0055C67.0547 28.5807 68.789 26.8945 71.2942 26.8945H71.4548C73.9599 26.8945 75.6942 28.5807 75.6942 31.0055V31.4873C75.6942 33.9122 73.9599 35.5983 71.4548 35.5983H71.2942ZM71.2942 33.8158H71.4548C72.5146 33.8158 73.2212 32.8523 73.2212 31.391V31.0216C73.2212 29.5924 72.5146 28.677 71.4548 28.677H71.2942C70.2343 28.677 69.5277 29.5924 69.5277 31.0216V31.391C69.5277 32.8523 70.2343 33.8158 71.2942 33.8158Z" fill="white"/>
<path d="M64.9618 35.6301C64.1428 35.6301 63.4844 35.0199 63.4844 34.2652V34.1688C63.4844 33.4462 64.1428 32.8359 64.9618 32.8359C65.7647 32.8359 66.4392 33.4462 66.4392 34.1688V34.2652C66.4392 35.0199 65.7647 35.6301 64.9618 35.6301Z" fill="white"/>
<path d="M146.406 18.5732L148.157 15.506C147.273 15.0563 146.679 14.2694 146.679 13.2096V12.9205C146.679 11.3146 147.9 10.2227 149.618 10.2227H153.729V18.5732H151.497V15.8914H150.292L148.879 18.5732H146.406ZM150.148 14.2534H151.529V11.957H150.148C149.441 11.957 148.944 12.3424 148.944 12.9847V13.1614C148.944 13.7877 149.457 14.2534 150.148 14.2534Z" fill="white"/>
<path d="M137.242 18.5732V10.2227H139.635V13.2577H142.638V10.2227H145.031V18.5732H142.638V15.1045H139.635V18.5732H137.242Z" fill="white"/>
<path d="M127.43 18.5732V10.2227H129.822V13.2577H132.825V10.2227H135.218V18.5732H132.825V15.1045H129.822V18.5732H127.43Z" fill="white"/>
<path d="M122.043 18.7502C119.522 18.7502 117.836 17.0801 117.836 14.575V14.2699C117.836 11.7968 119.538 10.0625 121.947 10.0625H122.156C124.404 10.0625 125.978 11.6523 125.978 13.8684V15.0567H120.164C120.277 16.1648 121.064 16.8393 122.204 16.8393H122.348C123.28 16.8393 124.035 16.3896 124.532 15.8436L125.721 17.3371C124.918 18.1561 123.585 18.7502 122.3 18.7502H122.043ZM120.229 13.5954H123.713V13.5472C123.681 12.4552 123.039 11.8129 122.124 11.8129H121.963C121.032 11.8129 120.405 12.4713 120.229 13.5954Z" fill="white"/>
<path d="M113.948 18.5732V15.6184C113.322 15.8111 112.664 15.9235 112.085 15.9235C110.223 15.9235 109.211 14.9118 109.211 13.1935V10.2227H111.588V12.8723C111.588 13.6592 111.893 14.0446 112.631 14.0446C113.081 14.0446 113.547 13.9643 113.948 13.7877V10.2227H116.341V18.5732H113.948Z" fill="white"/>
<path d="M102.214 21.8491C101.684 21.8491 101.058 21.7528 100.576 21.528V19.5046C100.913 19.7294 101.347 19.8739 101.796 19.8739C102.375 19.8739 102.888 19.5527 103.21 18.9104L99.7891 10.2227H102.278L104.398 16.3571H104.51L106.1 10.2227H108.509L105.699 19.0228C105.121 20.7893 103.996 21.8491 102.214 21.8491Z" fill="white"/>
<path d="M91.7556 18.7177C91.3381 18.7177 91.0169 18.6695 90.6797 18.541V16.6782C90.8885 16.7746 91.1454 16.8067 91.2899 16.8067C91.9644 16.8067 92.2213 16.4213 92.2534 14.0125L92.2695 10.2227H98.709V18.5732H96.3163V12.0694H94.4374L94.3892 14.1249C94.3089 17.5936 93.5221 18.7177 91.7556 18.7177Z" fill="white"/>
<path d="M86.5377 18.7507C84.8997 18.7507 83.6471 18.1083 82.8281 16.7433L84.5464 15.6513C84.996 16.4703 85.6384 16.8397 86.4253 16.8397H86.5537C87.2603 16.8397 87.726 16.4864 87.726 15.9886V15.8762C87.726 15.3462 87.3246 15.0411 86.618 15.0411H85.6063V13.5958H86.4734C87.0516 13.5958 87.4209 13.2747 87.4209 12.7768V12.6966C87.4209 12.2148 87.0194 11.9097 86.4092 11.9097H86.2968C85.5581 11.9097 84.9479 12.3593 84.6106 13.0017L83.0048 11.6688C83.8077 10.7053 85.0121 10.0469 86.6019 10.0469H86.7464C88.3362 10.0469 89.7012 10.9943 89.7012 12.263V12.4396C89.7012 13.1141 89.2837 13.7083 88.6414 14.1418C89.4764 14.5272 90.0545 15.2499 90.0545 16.117V16.2616C90.0545 17.6908 88.5932 18.7507 86.6983 18.7507H86.5377Z" fill="white"/>
<path d="M77.677 18.7507C75.1718 18.7507 73.4375 17.0645 73.4375 14.6397V14.1579C73.4375 11.733 75.1718 10.0469 77.677 10.0469H77.8376C80.3427 10.0469 82.0771 11.733 82.0771 14.1579V14.6397C82.0771 17.0645 80.3427 18.7507 77.8376 18.7507H77.677ZM77.677 16.9682H77.8376C78.8974 16.9682 79.604 16.0046 79.604 14.5433V14.174C79.604 12.7447 78.8974 11.8294 77.8376 11.8294H77.677C76.6171 11.8294 75.9105 12.7447 75.9105 14.174V14.5433C75.9105 16.0046 76.6171 16.9682 77.677 16.9682Z" fill="white"/>
<path d="M63.9141 21.7858V10.2235H65.809C65.9053 10.4644 65.9856 10.8337 66.0338 11.1549C66.6601 10.4644 67.5754 10.0469 68.6514 10.0469H68.7959C70.9799 10.0469 72.4733 11.717 72.4733 14.1579V14.6397C72.4733 17.0806 70.9799 18.7507 68.7959 18.7507H68.6514C67.72 18.7507 66.917 18.4456 66.3068 17.8996V21.7858H63.9141ZM68.0733 16.9682H68.2178C69.2937 16.9682 69.9842 16.0046 69.9842 14.5433V14.174C69.9842 12.7447 69.2937 11.8294 68.2178 11.8294H68.0733C66.9973 11.8294 66.3068 12.7608 66.3068 14.174V14.5433C66.3068 16.0046 67.0134 16.9682 68.0733 16.9682Z" fill="white"/>
</svg>
