<svg width="205" height="60" viewBox="0 0 205 60" fill="none" xmlns="http://www.w3.org/2000/svg">
<path fill-rule="evenodd" clip-rule="evenodd" d="M40.8738 58.0182C39.1277 52.7798 37.3354 47.5588 35.4969 42.3552C37.5018 38.5795 39.4499 34.7612 41.3414 30.9001C39.2823 28.1007 37.1783 25.3342 35.0294 22.6011C36.3972 18.5761 37.9946 14.6407 39.8218 10.7954C45.6725 1.05317 53.9716 -2.02496 64.719 1.56117C69.947 4.33657 73.0251 8.66144 73.9532 14.5358C74.6164 20.5707 73.3697 26.1814 70.2128 31.3677C66.593 36.6845 62.3462 41.4769 57.472 45.745C52.3228 50.272 46.5562 54.2072 40.8738 58.0182C41.018 58.0442 40.7843 57.8883 40.8738 58.0182Z" fill="#74D424"/>
<path fill-rule="evenodd" clip-rule="evenodd" d="M35.4969 42.3552C37.3354 47.5589 39.1277 52.7798 40.8738 58.0183C39.4887 59.788 37.6963 60.3724 35.4969 59.7716C26.0966 53.9143 17.4859 47.0179 9.66463 39.0824C6.31437 35.5018 3.66498 31.4498 1.71622 26.926C-0.491336 21.1765 -0.569184 15.4099 1.48244 9.62649C5.24905 2.38526 11.2104 -0.770729 19.3664 0.158533C26.8701 1.73863 32.1301 6.0635 35.1463 13.1331C35.3022 13.6007 35.3022 14.0682 35.1463 14.5358C34.2261 17.2572 33.3301 19.9847 32.4579 22.718C34.5347 25.5095 36.6387 28.2758 38.7698 31.0171C37.6019 34.6771 36.433 38.3394 35.2632 42.0046C35.2795 42.1834 35.3574 42.3003 35.4969 42.3552Z" fill="#0171ED"/>
<path fill-rule="evenodd" clip-rule="evenodd" d="M19.5029 18.6128C19.9862 17.745 21.0751 17.361 22.024 17.6547C22.2737 17.732 22.5036 17.8448 22.7137 17.9931C23.5696 18.5973 23.8337 19.7355 23.8164 20.783C23.8114 21.0856 23.7892 21.3859 23.7497 21.6837C23.5736 23.0126 22.7129 24.3681 21.3728 24.3393C20.4923 24.3204 19.6512 23.722 19.3608 22.8906C19.3152 22.7599 19.2781 22.6245 19.2495 22.4842C19.1234 21.6019 19.0993 20.7197 19.1771 19.8375C19.214 19.4195 19.2987 18.9794 19.5029 18.6128Z" fill="#010103"/>
<path fill-rule="evenodd" clip-rule="evenodd" d="M50.938 18.3902C51.4804 17.7776 52.31 17.4366 53.0981 17.6561C53.4316 17.749 53.7283 17.9039 53.9881 18.1208C54.6807 18.699 54.8607 19.666 54.8917 20.5677C54.8956 20.6826 54.8982 20.7974 54.8995 20.9123C54.9148 22.2639 54.6094 23.8971 53.3194 24.3006C52.83 24.4536 52.2661 24.4326 51.6276 24.2375C50.9431 23.943 50.5146 23.4364 50.3418 22.718C50.2303 21.8824 50.1985 21.0467 50.2465 20.2111C50.2844 19.5493 50.4986 18.8865 50.938 18.3902Z" fill="#010300"/>
<path fill-rule="evenodd" clip-rule="evenodd" d="M18.4214 30.3248C18.6873 30.0296 19.109 29.9277 19.5032 29.9766C20.2081 30.064 20.6658 30.6832 21.0091 31.3049C22.0463 33.183 23.6083 34.431 25.6947 35.0489C26.1458 35.1825 26.621 35.2313 27.09 35.2682C29.4906 35.4567 32.0055 38.3704 29.6324 38.7792C29.426 38.8147 29.1989 38.8379 28.9512 38.8486C24.9293 38.8748 21.6174 37.3942 19.0157 34.4068C18.3114 33.4822 17.9852 32.4673 18.0375 31.3621C18.052 31.054 18.1171 30.7424 18.2922 30.4885C18.3322 30.4305 18.3752 30.376 18.4214 30.3248Z" fill="#010105"/>
<path fill-rule="evenodd" clip-rule="evenodd" d="M52.6931 31.3525C53.3092 30.4191 54.4975 29.5898 55.3718 30.2872C56.0846 30.8558 55.9339 31.9556 55.5467 32.781C54.0755 35.9176 51.5222 37.8233 47.8871 38.4979C46.9035 38.6842 45.9165 38.7779 44.9262 38.779C44.1042 38.78 43.0988 38.571 42.7068 37.8485C42.0292 36.5998 44.0056 35.8898 45.4026 35.6313C46.923 35.3499 48.4042 34.9124 49.8461 34.3187C50.2542 34.1508 50.6206 33.8979 50.9586 33.6142C51.4595 33.1937 51.8879 32.6928 52.2149 32.1265C52.3676 31.862 52.527 31.604 52.6931 31.3525Z" fill="#020400"/>
<path d="M146.019 47.0134C142.658 47.0134 140.41 44.7866 140.41 41.4464V41.0396C140.41 37.7422 142.679 35.4298 145.891 35.4298H146.169C149.167 35.4298 151.265 37.5495 151.265 40.5043V42.0888H143.514C143.664 43.5662 144.713 44.4655 146.234 44.4655H146.426C147.668 44.4655 148.674 43.8659 149.338 43.1379L150.923 45.1292C149.852 46.2212 148.075 47.0134 146.362 47.0134H146.019ZM143.6 40.1403H148.246V40.0761C148.203 38.6201 147.347 37.7636 146.127 37.7636H145.912C144.671 37.7636 143.835 38.6415 143.6 40.1403Z" fill="black"/>
<path d="M127.985 46.7779V35.6439H130.511C130.661 36.0721 130.833 36.8001 130.854 37.2926C131.796 36.1364 133.166 35.4084 134.751 35.4084H134.837C137.235 35.4084 138.605 36.95 138.605 39.6479V46.7779H135.415V40.333C135.415 38.8342 134.858 38.0848 133.616 38.0848H133.509C132.117 38.0848 131.175 39.1554 131.175 40.7827V46.7779H127.985Z" fill="black"/>
<path d="M123.694 34.2736C122.602 34.2736 121.874 33.6312 121.874 32.6677C121.874 31.7042 122.602 31.019 123.694 31.019C124.808 31.019 125.578 31.7042 125.578 32.6677C125.578 33.6312 124.808 34.2736 123.694 34.2736ZM122.088 46.7779V35.6439H125.279V46.7779H122.088Z" fill="black"/>
<path d="M116.066 46.7779V31.3616H119.257V46.7779H116.066Z" fill="black"/>
<path d="M102.935 46.7779V35.6439H105.462C105.612 36.0721 105.783 36.8001 105.804 37.2926C106.746 36.1364 108.117 35.4084 109.701 35.4084H109.787C112.185 35.4084 113.555 36.95 113.555 39.6479V46.7779H110.365V40.333C110.365 38.8342 109.808 38.0848 108.566 38.0848H108.459C107.067 38.0848 106.125 39.1554 106.125 40.7827V46.7779H102.935Z" fill="black"/>
<path d="M95.0635 47.0134C91.7233 47.0134 89.4108 44.7652 89.4108 41.5321V40.8897C89.4108 37.6566 91.7233 35.4084 95.0635 35.4084H95.2776C98.6178 35.4084 100.93 37.6566 100.93 40.8897V41.5321C100.93 44.7652 98.6178 47.0134 95.2776 47.0134H95.0635ZM95.0635 44.6367H95.2776C96.6908 44.6367 97.6329 43.3521 97.6329 41.4036V40.9111C97.6329 39.0055 96.6908 37.785 95.2776 37.785H95.0635C93.6503 37.785 92.7082 39.0055 92.7082 40.9111V41.4036C92.7082 43.3521 93.6503 44.6367 95.0635 44.6367Z" fill="black"/>
<path d="M86.6158 47.0563C85.5238 47.0563 84.6459 46.2426 84.6459 45.2363V45.1078C84.6459 44.1443 85.5238 43.3307 86.6158 43.3307C87.6863 43.3307 88.5856 44.1443 88.5856 45.1078V45.2363C88.5856 46.2426 87.6863 47.0563 86.6158 47.0563Z" fill="black"/>
<path d="M195.21 24.3133L197.544 20.2237C196.366 19.6241 195.574 18.575 195.574 17.1618V16.7764C195.574 14.6352 197.201 13.1793 199.492 13.1793H204.974V24.3133H201.997V20.7375H200.392L198.507 24.3133H195.21ZM200.199 18.5536H202.04V15.4917H200.199C199.257 15.4917 198.593 16.0056 198.593 16.862V17.0976C198.593 17.9326 199.278 18.5536 200.199 18.5536Z" fill="black"/>
<path d="M182.998 24.3133V13.1793H186.189V17.226H190.193V13.1793H193.383V24.3133H190.193V19.6884H186.189V24.3133H182.998Z" fill="black"/>
<path d="M169.909 24.3133V13.1793H173.099V17.226H177.103V13.1793H180.293V24.3133H177.103V19.6884H173.099V24.3133H169.909Z" fill="black"/>
<path d="M162.726 24.5488C159.365 24.5488 157.116 22.322 157.116 18.9818V18.575C157.116 15.2776 159.386 12.9652 162.598 12.9652H162.876C165.874 12.9652 167.972 15.0849 167.972 18.0397V19.6241H160.221C160.371 21.1015 161.42 22.0008 162.94 22.0008H163.133C164.375 22.0008 165.381 21.4013 166.045 20.6733L167.629 22.6646C166.559 23.7566 164.782 24.5488 163.069 24.5488H162.726ZM160.307 17.6757H164.953V17.6115C164.91 16.1555 164.054 15.299 162.833 15.299H162.619C161.377 15.299 160.542 16.1769 160.307 17.6757Z" fill="black"/>
<path d="M151.94 24.3133V20.3735C151.105 20.6305 150.227 20.7804 149.456 20.7804C146.972 20.7804 145.623 19.4314 145.623 17.1404V13.1793H148.792V16.7122C148.792 17.7613 149.199 18.2752 150.184 18.2752C150.783 18.2752 151.404 18.1681 151.94 17.9326V13.1793H155.13V24.3133H151.94Z" fill="black"/>
<path d="M136.29 28.6812C135.584 28.6812 134.749 28.5528 134.106 28.253V25.5551C134.556 25.8549 135.134 26.0476 135.734 26.0476C136.505 26.0476 137.19 25.6194 137.618 24.7629L133.057 13.1793H136.376L139.202 21.3585H139.352L141.472 13.1793H144.684L140.937 24.9128C140.166 27.2681 138.667 28.6812 136.29 28.6812Z" fill="black"/>
<path d="M122.346 24.506C121.79 24.506 121.361 24.4417 120.912 24.2704V21.7867C121.19 21.9152 121.533 21.958 121.725 21.958C122.625 21.958 122.967 21.4441 123.01 18.2324L123.031 13.1793H131.617V24.3133H128.427V15.6416H125.922L125.858 18.3823C125.751 23.0072 124.702 24.506 122.346 24.506Z" fill="black"/>
<path d="M115.385 24.5488C113.201 24.5488 111.531 23.6923 110.439 21.8724L112.73 20.4164C113.329 21.5084 114.186 22.0008 115.235 22.0008H115.406C116.349 22.0008 116.969 21.5298 116.969 20.866V20.7161C116.969 20.0095 116.434 19.6027 115.492 19.6027H114.143V17.6757H115.299C116.07 17.6757 116.563 17.2475 116.563 16.5837V16.4766C116.563 15.8343 116.027 15.4275 115.214 15.4275H115.064C114.079 15.4275 113.265 16.027 112.816 16.8835L110.674 15.1063C111.745 13.8216 113.351 12.9437 115.471 12.9437H115.663C117.783 12.9437 119.603 14.207 119.603 15.8985V16.1341C119.603 17.0333 119.046 17.8256 118.19 18.4037C119.303 18.9176 120.074 19.8811 120.074 21.0373V21.23C120.074 23.1356 118.126 24.5488 115.599 24.5488H115.385Z" fill="black"/>
<path d="M103.574 24.5488C100.233 24.5488 97.9211 22.3006 97.9211 19.0674V18.4251C97.9211 15.1919 100.233 12.9437 103.574 12.9437H103.788C107.128 12.9437 109.44 15.1919 109.44 18.4251V19.0674C109.44 22.3006 107.128 24.5488 103.788 24.5488H103.574ZM103.574 22.1721H103.788C105.201 22.1721 106.143 20.8874 106.143 18.939V18.4465C106.143 16.5409 105.201 15.3204 103.788 15.3204H103.574C102.161 15.3204 101.218 16.5409 101.218 18.4465V18.939C101.218 20.8874 102.161 22.1721 103.574 22.1721Z" fill="black"/>
<path d="M85.224 28.5956V13.1793H87.7506C87.879 13.5004 87.9861 13.9929 88.0503 14.4211C88.8854 13.5004 90.1058 12.9437 91.5404 12.9437H91.7331C94.6451 12.9437 96.6364 15.1705 96.6364 18.4251V19.0674C96.6364 22.322 94.6451 24.5488 91.7331 24.5488H91.5404C90.2985 24.5488 89.228 24.142 88.4143 23.414V28.5956H85.224ZM90.7696 22.1721H90.9623C92.3969 22.1721 93.3176 20.8874 93.3176 18.939V18.4465C93.3176 16.5409 92.3969 15.3204 90.9623 15.3204H90.7696C89.335 15.3204 88.4143 16.5623 88.4143 18.4465V18.939C88.4143 20.8874 89.3564 22.1721 90.7696 22.1721Z" fill="black"/>
</svg>
